<?xml version="1.0" encoding="utf-8"?>
<!-- Generator: Adobe Illustrator 27.5.0, SVG Export Plug-In . SVG Version: 6.00 Build 0)  -->
<svg version="1.1" xmlns="http://www.w3.org/2000/svg" xmlns:xlink="http://www.w3.org/1999/xlink" x="0px" y="0px"
	 viewBox="0 0 500 500" style="enable-background:new 0 0 500 500;" xml:space="preserve">
<g id="Background_Simple">
	<g>
		<path style="fill:#92E3A9;" d="M479.819,290.424c-15.412,41.281-46.904,85.96-91.219,99.188
			c-66.957,19.993-74.957,73.966-194.886,68.96c-18.699-0.779-35.982-3.408-51.859-7.605c-8.535-2.255-16.666-4.975-24.382-8.11
			C47.411,414.479,10.863,352.022,7.83,286.672c-4.005-85.95,55.965-126.917,94.94-150.905
			c38.975-23.988,85.95-116.936,203.886-112.941c17.981,0.617,35.921,3.074,53.305,7.787c39.683,10.74,80.023,34.495,103.465,69.223
			c1.76,2.609,3.438,5.279,5.046,7.999C499.843,161.06,500.834,234.146,479.819,290.424z"/>
		<path style="opacity:0.7;fill:#FFFFFF;" d="M479.819,290.424c-15.412,41.281-46.904,85.96-91.219,99.188
			c-66.957,19.993-74.957,73.966-194.886,68.96c-18.699-0.779-35.982-3.408-51.859-7.605c-8.535-2.255-16.666-4.975-24.382-8.11
			C47.411,414.479,10.863,352.022,7.83,286.672c-4.005-85.95,55.965-126.917,94.94-150.905
			c38.975-23.988,85.95-116.936,203.886-112.941c17.981,0.617,35.921,3.074,53.305,7.787c39.683,10.74,80.023,34.495,103.465,69.223
			c1.76,2.609,3.438,5.279,5.046,7.999C499.843,161.06,500.834,234.146,479.819,290.424z"/>
	</g>
</g>
<g id="Clouds">
	<g style="opacity:0.3;">
		<path style="fill:none;stroke:#000000;stroke-linecap:round;stroke-linejoin:round;stroke-miterlimit:10;" d="M421.383,76.534
			c0,0-14.706-35.713-55.321-37.114c-40.615-1.401-39.215,20.308-48.318,26.61c-9.103,6.302-17.507-9.103-31.512-4.202
			c-14.005,4.902-11.904,10.504-18.207,16.106c-6.302,5.602-19.607-0.7-25.21,3.501c-5.602,4.202-9.804,9.804-9.804,9.804
			s-9.804-3.501-14.005,0c-4.201,3.501-4.201,3.501-4.201,3.501h242.992c0,0-1.401-12.605-12.605-16.806
			C433.988,73.733,429.086,79.335,421.383,76.534z"/>
		<path style="fill:none;stroke:#000000;stroke-linecap:round;stroke-linejoin:round;stroke-miterlimit:10;" d="M153.765,193.333
			c0,0-9.662-23.466-36.349-24.386c-26.687-0.92-25.766,13.343-31.748,17.484c-5.982,4.141-11.503-5.982-20.705-2.761
			c-9.202,3.221-7.822,6.902-11.963,10.583c-4.141,3.681-12.883-0.46-16.564,2.3c-3.681,2.761-6.442,6.442-6.442,6.442
			s-6.442-2.301-9.202,0c-2.761,2.301-2.761,2.301-2.761,2.301h159.66c0,0-0.92-8.282-8.282-11.043
			C162.047,191.492,158.826,195.173,153.765,193.333z"/>
		<path style="fill:none;stroke:#000000;stroke-linecap:round;stroke-linejoin:round;stroke-miterlimit:10;" d="M439.473,296.271
			c0,0-9.662-23.466-36.349-24.386c-26.687-0.92-25.767,13.343-31.748,17.484c-5.981,4.141-11.503-5.981-20.705-2.761
			s-7.822,6.902-11.963,10.583c-4.141,3.681-12.883-0.46-16.564,2.301c-3.681,2.761-6.442,6.442-6.442,6.442s-6.442-2.301-9.202,0
			c-2.761,2.301-2.761,2.301-2.761,2.301h159.66c0,0-0.92-8.282-8.282-11.043C447.755,294.431,444.534,298.112,439.473,296.271z"/>
	</g>
</g>
<g id="Plant">
	<g>
		<g>
			<path style="fill:#92E3A9;stroke:#263238;stroke-linecap:round;stroke-linejoin:round;stroke-miterlimit:10;" d="
				M389.125,265.935c0,0-2.77,7.618-8.657,8.657c-5.887,1.039-16.275-10.388-9.696-16.275
				C377.352,252.43,386.355,261.78,389.125,265.935z"/>
			<path style="fill:#92E3A9;stroke:#263238;stroke-linecap:round;stroke-linejoin:round;stroke-miterlimit:10;" d="
				M398.128,228.537c0,0-8.657,21.123-5.194,31.511c3.463,10.388,24.932,18.007,31.165,4.501
				c6.233-13.505-7.618-32.55-12.813-36.706C406.093,223.689,399.86,225.074,398.128,228.537z"/>
			<path style="fill:#92E3A9;stroke:#263238;stroke-linecap:round;stroke-linejoin:round;stroke-miterlimit:10;" d="M448.685,237.54
				c0,0-14.89,13.505-16.621,27.01c-1.731,13.505,8.31,18.353,18.699,16.621c10.388-1.732,15.583-28.048,12.466-40.168
				C460.112,228.883,448.685,237.54,448.685,237.54z"/>
			<g>
				<path style="fill:#92E3A9;stroke:#263238;stroke-linecap:round;stroke-linejoin:round;stroke-miterlimit:10;" d="
					M451.455,312.336c0,0-16.621,0.693-17.314,8.657c-0.693,7.964,7.272,9.696,15.236,2.77
					C457.342,316.838,458.381,312.682,451.455,312.336z"/>
				<path style="fill:none;stroke:#263238;stroke-miterlimit:10;" d="M434.416,322.891c0,0,13.099-5.993,18.998-7.034"/>
			</g>
			<g>
				<path style="fill:#92E3A9;stroke:#263238;stroke-linecap:round;stroke-linejoin:round;stroke-miterlimit:10;" d="M455.16,364.45
					c0,0-12.209-11.3-18.346-6.176c-6.137,5.124-1.75,11.993,8.777,12.759C456.118,371.798,459.797,369.606,455.16,364.45z"/>
				<path style="fill:none;stroke:#263238;stroke-miterlimit:10;" d="M435.662,359.807c0,0,13.485,5.065,18.382,8.515"/>
			</g>
			<g>
				<path style="fill:#92E3A9;stroke:#263238;stroke-linecap:round;stroke-linejoin:round;stroke-miterlimit:10;" d="
					M390.759,361.122c0,0,16.83-15.577,25.289-8.514c8.46,7.063,2.412,16.532-12.098,17.588
					C389.439,371.252,384.367,368.229,390.759,361.122z"/>
				<path style="fill:none;stroke:#263238;stroke-miterlimit:10;" d="M417.636,354.722c0,0-18.589,6.982-25.34,11.738"/>
			</g>
			<path style="fill:#92E3A9;stroke:#263238;stroke-linecap:round;stroke-linejoin:round;stroke-miterlimit:10;" d="
				M410.248,328.957c0,0-1.731,8.311-7.964,11.427c-6.233,3.117-17.314-3.463-11.427-13.505
				C396.743,316.838,407.132,324.802,410.248,328.957z"/>
			<path style="fill:#92E3A9;stroke:#263238;stroke-linecap:round;stroke-linejoin:round;stroke-miterlimit:10;" d="
				M395.704,302.987c0,0-3.116-6.926-15.236-2.424c-12.12,4.502-16.968,11.427-9.349,13.851
				C378.737,316.838,395.704,302.987,395.704,302.987z"/>
			<path style="fill:none;stroke:#263238;stroke-miterlimit:10;" d="M393.384,302.671c0,0-12.839,1.388-19.779,7.287"/>
			<path style="fill:#92E3A9;stroke:#263238;stroke-linecap:round;stroke-linejoin:round;stroke-miterlimit:10;" d="M430.332,219.88
				c0,0,2.078,4.848,6.233,3.809c4.155-1.039,5.194-7.272,11.773-5.54c6.579,1.731,12.12,9.349,12.12,5.887
				c0-3.463-8.311-12.466-17.66-12.466C433.449,211.569,430.678,215.378,430.332,219.88z"/>
			<path style="fill:none;stroke:#263238;stroke-miterlimit:10;" d="M395.704,302.987c0,0,14.91-2.862,21.119,13.695
				c0.609,1.625,1.124,3.324,1.556,5.067"/>
			<path style="fill:#92E3A9;stroke:#263238;stroke-linecap:round;stroke-linejoin:round;stroke-miterlimit:10;" d="
				M457.932,286.946c0,0,3.116-6.926,15.236-2.424c12.12,4.502,16.967,11.427,9.349,13.851
				C474.9,300.798,457.932,286.946,457.932,286.946z"/>
			<path style="fill:none;stroke:#263238;stroke-miterlimit:10;" d="M460.702,287.403c0,0,12.492-0.694,18.391,6.593"/>
			<path style="fill:none;stroke:#263238;stroke-miterlimit:10;" d="M457.932,286.946c0,0-4.943-0.949-10.322,1.406"/>
			<path style="fill:none;stroke:#263238;stroke-miterlimit:10;" d="M403.653,274.524c-7.308-7.463-14.528-8.589-14.528-8.589
				s-10.662-2.822-14.826,0.995"/>
			<g>
				<line style="fill:none;stroke:#263238;stroke-miterlimit:10;" x1="405.136" y1="236.165" x2="404.488" y2="233.271"/>
				<path style="fill:none;stroke:#263238;stroke-miterlimit:10;" d="M421.998,389.251c0,0,1.552-59.633,0-77.743
					c-1.552-18.11-8.796-39.324-8.796-39.324l-7.379-32.952"/>
				<line style="fill:none;stroke:#263238;stroke-miterlimit:10;" x1="452.774" y1="248.969" x2="454.109" y2="246.11"/>
				<path style="fill:none;stroke:#263238;stroke-miterlimit:10;" d="M425.62,389.185c0,0,0.517-54.394,2.587-69.916
					c2.07-15.523,10.349-39.842,10.349-39.842l12.705-27.216"/>
				<path style="fill:none;stroke:#263238;stroke-miterlimit:10;" d="M434.416,322.891c0,0-3.622,31.184-5.692,66.369"/>
				<path style="fill:none;stroke:#263238;stroke-miterlimit:10;" d="M416.824,389.185c0,0,1.035-49.737-1.035-56.463
					c-2.07-6.727-5.541-3.765-5.541-3.765s-9.577,1.127-13.047,6.678"/>
				<path style="fill:none;stroke:#263238;stroke-miterlimit:10;" d="M419.201,325.624c2.707,15.168,0.21,63.613,0.21,63.613"/>
				<path style="fill:none;stroke:#263238;stroke-miterlimit:10;" d="M444.677,289.979c-2.997,2.051-5.877,5.362-7.865,10.663
					c-6.209,16.558-5.501,88.619-5.501,88.619"/>
				<path style="fill:none;stroke:#263238;stroke-miterlimit:10;" d="M405.455,276.498c3.235,3.798,6.371,8.933,8.782,15.865
					c8.279,23.801,11.383,85.439,9.831,96.822"/>
				<path style="fill:none;stroke:#263238;stroke-miterlimit:10;" d="M426.481,298.773c-0.504,30.039-0.861,90.412-0.861,90.412"/>
			</g>
			<path style="fill:none;stroke:#263238;stroke-miterlimit:10;" d="M426.544,295.035c0.341-19.863,0.744-39.303,1.146-49.758
				c1.035-26.906,2.642-25.397,2.642-25.397s1.915-6.041,12.673-5.347"/>
			<g>
				<path style="fill:#92E3A9;stroke:#263238;stroke-linecap:round;stroke-linejoin:round;stroke-miterlimit:10;" d="
					M413.293,317.719c0,0-8.657-7.72-5.194-11.517c3.463-3.797,24.932-6.581,31.165-1.645c6.233,4.936-7.618,11.896-12.812,13.415
					C421.258,319.491,415.025,318.984,413.293,317.719z"/>
				<path style="fill:none;stroke:#263238;stroke-miterlimit:10;" d="M421.288,311.398c-0.121,0.781-0.192,1.558-0.192,2.305"/>
				<path style="fill:none;stroke:#263238;stroke-miterlimit:10;" d="M424.265,302.385c0,0-1.288,2.576-2.222,5.734"/>
			</g>
			<g>
				<path style="fill:#92E3A9;stroke:#263238;stroke-linecap:round;stroke-linejoin:round;stroke-miterlimit:10;" d="
					M413.293,368.194c0,0-8.657-7.72-5.194-11.517c3.463-3.796,24.932-6.581,31.165-1.645c6.233,4.936-7.618,11.896-12.812,13.415
					C421.258,369.966,415.025,369.459,413.293,368.194z"/>
				<path style="fill:none;stroke:#263238;stroke-miterlimit:10;" d="M424.265,352.86c0,0-3.169,6.338-3.169,11.317"/>
			</g>
			<g>
				<path style="fill:#92E3A9;stroke:#263238;stroke-linecap:round;stroke-linejoin:round;stroke-miterlimit:10;" d="
					M419.738,346.847c0,0-5.878-5.241-3.527-7.819c2.351-2.578,16.928-4.468,21.159-1.117c4.232,3.351-5.172,8.077-8.699,9.108
					C425.145,348.049,420.913,347.706,419.738,346.847z"/>
				<path style="fill:none;stroke:#263238;stroke-miterlimit:10;" d="M427.187,336.436c0,0-2.151,4.303-2.151,7.684"/>
			</g>
		</g>
		
			<rect x="411.607" y="380.6" style="fill:#263238;stroke:#263238;stroke-linecap:round;stroke-linejoin:round;stroke-miterlimit:10;" width="23.434" height="51.963"/>
	</g>
</g>
<g id="Piggy_Bank">
	<g>
		
			<ellipse transform="matrix(0.9814 -0.1918 0.1918 0.9814 -50.5019 55.4083)" style="fill:#92E3A9;stroke:#263238;stroke-miterlimit:10;" cx="261.024" cy="288.63" rx="29.023" ry="37.198"/>
		<g>
			<path style="fill:#92E3A9;stroke:#263238;stroke-miterlimit:10;" d="M123.122,253.554c0,0-23.119-35.708-50.062-29.926
				c-17.943,3.85-7.401,37.993-7.401,37.993"/>
			<path style="fill:#263238;stroke:#263238;stroke-miterlimit:10;" d="M71.676,264.966c-0.026,0.004-0.051,0.01-0.076,0.015
				l-1.652-0.422c0,0-10.306-31.308,4.706-30.917c12.674,0.33,29.721,29.574,34.725,38.679
				C99.615,265.509,86.034,262.464,71.676,264.966z"/>
		</g>
		<path style="fill:#263238;stroke:#263238;stroke-miterlimit:10;" d="M183.276,417.411l6.322,27.878
			c1.966,8.671,9.673,14.825,18.563,14.825h0c8.891,0,16.597-6.154,18.563-14.825l11.127-49.065"/>
		<path style="fill:#263238;stroke:#263238;stroke-miterlimit:10;" d="M86.696,417.411l6.344,27.976
			c1.953,8.614,9.609,14.728,18.442,14.728l0,0c8.923,0,16.632-6.237,18.494-14.964l6.331-29.674"/>
		<path style="fill:#92E3A9;stroke:#263238;stroke-miterlimit:10;" d="M30.994,334.026c0,34.055,18.021,64.558,46.456,85.095
			c23.2,16.756,53.333,26.876,86.268,26.876c73.301,0,132.724-50.131,132.724-111.971c0-61.84-59.423-111.971-132.724-111.971
			C90.417,222.055,30.994,272.186,30.994,334.026z"/>
		<g>
			<path style="fill:#263238;stroke:#263238;stroke-miterlimit:10;" d="M111.259,266.382c0,3.738-1.818,6.769-4.061,6.769
				c-2.243,0-4.061-3.03-4.061-6.769c0-3.738,1.818-6.769,4.061-6.769C109.441,259.613,111.259,262.644,111.259,266.382z"/>
			<path style="fill:none;stroke:#263238;stroke-miterlimit:10;" d="M98.303,265.236c0,0,4.562-9.307,11.861-3.467"/>
		</g>
		<g>
			<path style="fill:#263238;stroke:#263238;stroke-miterlimit:10;" d="M78.231,266.747c0,3.738-1.818,6.769-4.061,6.769
				c-2.243,0-4.061-3.031-4.061-6.769s1.818-6.769,4.061-6.769C76.412,259.978,78.231,263.009,78.231,266.747z"/>
			<path style="fill:none;stroke:#263238;stroke-miterlimit:10;" d="M65.275,265.601c0,0,4.562-9.306,11.861-3.467"/>
		</g>
		<path style="fill:#92E3A9;stroke:#263238;stroke-miterlimit:10;" d="M75.183,345.906c0,0,19.768,0.449,26.058-22.015"/>
		<path style="fill:#92E3A9;stroke:#263238;stroke-miterlimit:10;" d="M88.641,283.637c-6.29-1.953-15.61-4.496-24.613-5.643"/>
		<path style="fill:#92E3A9;stroke:#263238;stroke-miterlimit:10;" d="M96.267,286.194c0,0-1.577-0.59-4.217-1.464"/>
		<path style="fill:none;stroke:#263238;stroke-miterlimit:10;" d="M55.39,388.484c7.053,9.964,15.982,18.872,26.376,26.379
			c6.885,4.972,14.412,9.33,22.463,12.971"/>
		<path style="fill:#FFFFFF;stroke:#263238;stroke-miterlimit:10;" d="M41.003,358.553c1.687,6.03,3.982,11.861,6.827,17.445"/>
		<path style="fill:none;stroke:#263238;stroke-miterlimit:10;" d="M270.02,276.801c-4.174-5.508-8.934-10.669-14.204-15.422"/>
		<path style="fill:none;stroke:#263238;stroke-miterlimit:10;" d="M276.339,381.902c8.612-14.39,13.463-30.655,13.463-47.876
			c0-17.235-4.859-33.513-13.484-47.911"/>
		<path style="fill:none;stroke:#263238;stroke-miterlimit:10;" d="M104.229,427.834c17.721,8.015,37.976,12.561,59.489,12.561
			c24.611,0,47.574-5.949,66.981-16.234"/>
		<g>
			<path style="fill:#808080;stroke:#263238;stroke-miterlimit:10;" d="M136.372,227.079c2.635,0.927,4.749,1.824,6.409,2.645
				c1.274,0.627,2.297,1.207,3.089,1.699c1.68-0.203,3.369-0.376,5.068-0.512c4.199-0.367,8.465-0.55,12.78-0.55
				c19.383,0,37.761,3.678,54.277,10.28c2.876,1.149,5.695,2.394,8.456,3.716c-5.28-5.541-11.188-9.566-15.908-12.24
				c-14.518-4.875-30.309-7.548-46.825-7.548C154.336,224.57,145.195,225.439,136.372,227.079z"/>
			<path style="fill:#263238;stroke:#263238;stroke-miterlimit:10;" d="M142.782,229.724l8.156,1.187
				c4.199-0.367,8.465-0.55,12.78-0.55c19.383,0,37.761,3.678,54.277,10.28c-2.626-1.93-5.174-3.542-7.452-4.836
				c-14.518-4.865-30.309-7.548-46.825-7.548C156.595,228.257,149.606,228.769,142.782,229.724z"/>
		</g>
		<g>
			<circle style="fill:#92E3A9;stroke:#263238;stroke-miterlimit:10;" cx="54.026" cy="309.453" r="33.022"/>
			<ellipse style="fill:#263238;stroke:#263238;stroke-miterlimit:10;" cx="63.559" cy="309.952" rx="6.95" ry="11.467"/>
			<ellipse style="fill:#263238;stroke:#263238;stroke-miterlimit:10;" cx="38.674" cy="308.164" rx="6.95" ry="11.467"/>
		</g>
		<path style="fill:#92E3A9;stroke:#263238;stroke-miterlimit:10;" d="M215.306,417.411l6.322,27.878
			c1.966,8.671,9.673,14.825,18.563,14.825l0,0c8.891,0,16.597-6.154,18.563-14.825l11.127-49.065"/>
		<path style="fill:#92E3A9;stroke:#263238;stroke-miterlimit:10;" d="M120.696,417.411l6.344,27.976
			c1.953,8.614,9.609,14.728,18.442,14.728l0,0c8.923,0,16.632-6.237,18.494-14.964l6.331-29.674"/>
		<g>
			<path style="fill:#92E3A9;stroke:#263238;stroke-miterlimit:10;" d="M176.001,271.809c0,0-3.341-41.425-31.737-53.117
				c-18.911-7.787-26.622,24.89-26.622,24.89"/>
			<path style="fill:#263238;stroke:#263238;stroke-miterlimit:10;" d="M121.587,249.77c-0.026-0.012-0.053-0.022-0.08-0.034
				l-1.34-1.316c0,0,6.467-30.346,20.422-21.043c11.781,7.854,12.737,40.649,12.749,50.678
				C147.654,266.942,136.42,256.448,121.587,249.77z"/>
		</g>
	</g>
</g>
<g id="Character">
	<g>
		<g>
			<g>
				<path style="fill:#FFFFFF;stroke:#263238;stroke-linecap:round;stroke-linejoin:round;stroke-miterlimit:10;" d="
					M216.932,316.893c0,0-3.177,1.546-7.671,4.114c-4.494,2.568-7.222,3.37-6.741,4.654c0.481,1.284,3.852,1.605,9.63,1.765
					c5.778,0.16,9.79-1.284,10.432-1.284c0.642,0,5.296,0.16,7.062-0.481c1.765-0.642,0.482-5.457,0.482-5.457
					S219.628,315.829,216.932,316.893z"/>
				<path style="fill:#FFFFFF;stroke:#263238;stroke-linecap:round;stroke-linejoin:round;stroke-miterlimit:10;" d="
					M252.965,316.893c0,0-3.177,1.546-7.671,4.114c-4.494,2.568-7.222,3.37-6.741,4.654c0.482,1.284,3.852,1.605,9.63,1.765
					c5.778,0.16,9.79-1.284,10.432-1.284s5.296,0.16,7.062-0.481c1.765-0.642,0.481-5.457,0.481-5.457
					S255.661,315.829,252.965,316.893z"/>
				<path style="fill:#263238;stroke:#263238;stroke-linecap:round;stroke-linejoin:round;stroke-miterlimit:10;" d="
					M269.596,196.382c0,0,4.052,8.848,3.83,17.71c-0.221,8.862-9.083,44.758-8.64,49.189c0.443,4.431,4.431,7.976,3.988,18.609
					c-0.443,10.634-3.323,27.064-3.323,27.064s1.688,5.407,1.245,6.958c-0.443,1.551-0.215,5.577-0.215,5.577
					s-2.918-2.145-5.577-2.145c-2.658,0-9.652-1.48-9.652-2.145s2.456-6.915,2.456-6.915l0.222-5.095c0,0-4.209-35.926-5.096-43.237
					c-0.886-7.311-4.209-42.099-4.209-42.099s-7.533,43.872-7.754,45.422c-0.222,1.551,1.108,10.634-1.329,17.28
					c-2.437,6.646-3.988,22.819-3.988,26.364c0,3.545-0.886,12.849-0.886,12.849s-4.431,0-6.868-1.108
					c-2.437-1.108-4.209-2.88-4.874-3.102c-0.665-0.222-1.994-0.665-1.994-0.665s0.222-1.772,0.665-3.323
					c0.443-1.551,2.215-4.652,2.215-4.652l0.665-29.687c0,0-0.443-16.394,0-19.053c0.443-2.659,0.222-5.317,0.222-6.203
					c0-0.886,0-33.902,1.108-40.992c1.108-7.089,1.416-16.254,1.416-16.254l43.336-5.014L269.596,196.382z"/>
			</g>
			<path style="fill:#92E3A9;stroke:#263238;stroke-linecap:round;stroke-linejoin:round;stroke-miterlimit:10;" d="
				M267.504,189.582l2.092,6.799c0,0-14.171,9.434-27.769,10.131c-13.598,0.697-17.958-2.589-19.004-3.46
				c-1.046-0.872,0.4-6.322,0.4-6.322s15.167,1.569,23.013-0.349S267.504,189.582,267.504,189.582z"/>
			<g>
				<path style="fill:#92E3A9;stroke:#263238;stroke-linecap:round;stroke-linejoin:round;stroke-miterlimit:10;" d="
					M249.602,125.365c0,0,14.77,3.97,15.722,5.558c0.953,1.588-3.695,36.478-4.363,39.153c-0.669,2.675,1.337,11.033,2.675,12.872
					c1.337,1.839,5.182,3.845,5.182,7.021c0,3.176-21.565,11.033-29.255,11.033c-7.69,0-16.252-1.286-17.088-2.122
					c-0.836-0.836-0.131-3.729-0.131-4.398c0-0.669,0.167-19.559,0.167-19.559s-4.346-5.182-5.349-11.368
					c-1.003-6.185,0.36-14.052,0.36-14.052s-1.271-11.276-0.159-15.564c1.112-4.288,9.529-7.305,9.529-7.305
					S235.15,123.142,249.602,125.365z"/>
				<path style="fill:none;stroke:#263238;stroke-linecap:round;stroke-linejoin:round;stroke-miterlimit:10;" d="M237.371,172.673
					c-1.47-0.736-3.292-1.898-5.352-3.728"/>
				<path style="fill:none;stroke:#263238;stroke-linecap:round;stroke-linejoin:round;stroke-miterlimit:10;" d="M241.263,173.946
					c0,0-0.691-0.028-1.908-0.437"/>
			</g>
			<g>
				<path style="fill:#263238;stroke:#263238;stroke-linecap:round;stroke-linejoin:round;stroke-miterlimit:10;" d="
					M224.071,125.393c0,0-1.615,4.631-0.431,6.785c1.185,2.154,5.708,2.477,5.708,2.477s-0.431-1.292,0.538-3.661
					c0.969-2.369,2.585-6.139,2.585-6.139L224.071,125.393z"/>
				<path style="fill:#FFFFFF;stroke:#263238;stroke-linecap:round;stroke-linejoin:round;stroke-miterlimit:10;" d="
					M213.409,110.316c0,0,0.215,3.662,0.862,4.523c0.646,0.861,2.477,0,2.8,2.369c0.323,2.369,0.431,6.354,1.292,6.677
					c0.862,0.323,3.231-0.108,3.231-0.108s3.985,3.661,5.169,4.2c1.184,0.538,1.508,0.646,2.369,0
					c0.861-0.646,3.123-2.369,3.123-2.369s-1.723,4.954-1.077,6.462c0.646,1.508,3.015,3.985,5.708,1.508
					c2.692-2.477,4.308-8.077,4.308-8.077l-7.108-20.139l-19.492-4.631C214.594,100.731,212.44,108.808,213.409,110.316z"/>
				<path style="fill:#263238;stroke:#263238;stroke-linecap:round;stroke-linejoin:round;stroke-miterlimit:10;" d="
					M233.117,108.701c0,0,3.446,15.185,4.308,20.892c0.861,5.708-0.646,7.969-0.646,7.969s8.615-0.538,11.631-5.815
					c3.015-5.277,5.6-8.185,3.877-13.246c-1.723-5.062-6.462-21.108-10.985-26.6c-4.523-5.492-14.538-6.785-18.308-6.139
					c-3.769,0.646-8.077,5.6-10.016,9.262c-1.938,3.662-3.231,10.985-4.523,11.739s-2.477,2.585-0.538,3.123
					c1.939,0.538,5.492,0.431,5.492,0.431s0.215-3.446,0.754-5.062c0.538-1.615,0.969-2.585,0.969-2.585s0.646,1.831,7.862,3.985
					c7.215,2.154,9.908,1.077,9.908,1.077L233.117,108.701z"/>
				<path style="fill:none;stroke:#263238;stroke-linecap:round;stroke-linejoin:round;stroke-miterlimit:10;" d="M215.132,102.67
					c0,0,6.785,9.262,18.523,7.215"/>
				<path style="fill:none;stroke:#263238;stroke-linecap:round;stroke-linejoin:round;stroke-miterlimit:10;" d="M218.04,113.439
					c0,0,1.615-2.585,4.308-1.508"/>
				<path style="fill:none;stroke:#263238;stroke-linecap:round;stroke-linejoin:round;stroke-miterlimit:10;" d="M226.44,120.008
					c0,0,0.215,1.615-1.077,2.585"/>
				<path style="fill:#263238;" d="M220.673,116.191c0.263,0.727,0.817,1.193,1.236,1.041c0.419-0.152,0.546-0.864,0.283-1.591
					c-0.263-0.727-0.817-1.193-1.236-1.041C220.536,114.752,220.41,115.464,220.673,116.191z"/>
				<polygon style="fill:#263238;stroke:#263238;stroke-linecap:round;stroke-linejoin:round;stroke-miterlimit:10;" points="
					232.256,125.608 234.948,122.808 233.117,130.67 				"/>
			</g>
		</g>
		<path style="fill:#FFFFFF;stroke:#263238;stroke-linecap:round;stroke-linejoin:round;stroke-miterlimit:10;" d="M175.099,152.415
			c0,0-1.126-0.804-1.77-1.93c-0.644-1.126-1.609,0.643-1.448,1.77c0.161,1.126,1.287,2.735,1.287,2.735L175.099,152.415z"/>
		<g>
			
				<ellipse transform="matrix(0.1622 -0.9868 0.9868 0.1622 -13.2002 351.9101)" style="fill:#858585;stroke:#263238;stroke-linecap:round;stroke-linejoin:round;stroke-miterlimit:10;" cx="200.649" cy="183.729" rx="40.839" ry="40.839"/>
			
				<ellipse transform="matrix(0.162 -0.9868 0.9868 0.162 -12.2534 351.2002)" style="fill:#FFFFFF;stroke:#263238;stroke-linecap:round;stroke-linejoin:round;stroke-miterlimit:10;" cx="200.649" cy="182.814" rx="35.74" ry="35.74"/>
			<polyline style="fill:none;stroke:#263238;stroke-linecap:round;stroke-linejoin:round;stroke-miterlimit:10;" points="
				186.483,189.671 200.649,183.729 200.649,216.441 			"/>
			
				<circle style="fill:#858585;stroke:#263238;stroke-linecap:round;stroke-linejoin:round;stroke-miterlimit:10;" cx="200.649" cy="182.814" r="2.206"/>
		</g>
		<g>
			<g>
				<path style="fill:#92E3A9;stroke:#263238;stroke-linecap:round;stroke-linejoin:round;stroke-miterlimit:10;" d="M256.431,128.7
					c0,0,9.052,0.635,10.799,1.906c1.747,1.27,13.457,36.127,14.126,40.641c0.669,4.514-0.836,5.015-1.672,5.015
					c-0.836,0-20.395,6.352-22.735,6.854c-2.34,0.501-2.842,0.167-3.678-0.502c-0.836-0.669-4.848-5.517-3.678-8.359
					c1.17-2.842,3.176-3.343,3.176-3.343l12.705-4.681l-9.997-17.839"/>
				<path style="fill:none;stroke:#263238;stroke-linecap:round;stroke-linejoin:round;stroke-miterlimit:10;" d="M271.468,168.203
					c0,0-2.702-1.941-5.994-1.972"/>
				<path style="fill:none;stroke:#263238;stroke-linecap:round;stroke-linejoin:round;stroke-miterlimit:10;" d="M269.647,165.472
					c0,0,3.459,1.092,5.462,3.277"/>
			</g>
			<path style="fill:#92E3A9;stroke:#263238;stroke-linecap:round;stroke-linejoin:round;stroke-miterlimit:10;" d="
				M243.073,176.763c0,0,5.684-1.839,6.52-2.508c0.836-0.669,2.675-0.167,3.678,2.173c1.003,2.34,0,6.185,0,6.185l-6.687,1.672
				c0,0-1.672,0.334-3.343-2.508C241.569,178.936,241.234,176.93,243.073,176.763z"/>
			<path style="fill:#FFFFFF;stroke:#263238;stroke-linecap:round;stroke-linejoin:round;stroke-miterlimit:10;" d="
				M245.397,177.244c0,0-4.487-0.579-5.067-0.724c-0.579-0.145-2.316-2.027-3.04-2.606c-0.724-0.579-3.049,0.271-4.786-1.756
				c-1.737-2.027-2.461,0.145-2.316,1.303c0.145,1.158,1.737,1.737,2.75,2.316c1.013,0.579,1.891,2.19,1.891,2.19
				s-3.329,2.606-5.066,3.04c-1.737,0.434-6.369,1.448-6.514,2.027c-0.145,0.579,0.434,0.724,1.158,0.724s5.356-0.29,5.356-0.29
				l3.329-0.579l-5.211,2.461c0,0-4.198,0.579-4.198,1.158s0.724,0.869,1.592,0.724c0.868-0.145,4.198,0.145,5.356-0.29
				c1.158-0.434,3.92-1.22,3.92-1.22s-4.789,3.247-5.368,3.392c-0.579,0.145-3.185,0.434-2.606,1.013
				c0.579,0.579,1.592,1.158,3.04,0.579c1.448-0.579,4.053-1.592,4.053-1.592s-0.579,1.158-1.158,1.592
				c-0.579,0.434-0.869,1.158-0.145,1.158s3.185-1.737,4.198-2.606c1.013-0.868,2.895-3.329,2.895-3.329l4.053-2.027l2.027-0.869
				C245.542,183.034,246.989,180.284,245.397,177.244z"/>
			<path style="fill:none;stroke:#263238;stroke-linecap:round;stroke-linejoin:round;stroke-miterlimit:10;" d="M233.672,189.114
				c0,0,1.552-0.301,2.224-1.242"/>
		</g>
		<g>
			<path style="fill:#FFFFFF;stroke:#263238;stroke-linecap:round;stroke-linejoin:round;stroke-miterlimit:10;" d="
				M169.468,152.737c0,0-2.413,1.448-1.448,2.896c0.965,1.448,3.861,3.539,4.022,2.413c0.161-1.126-0.804-2.413-1.126-3.7
				C170.594,153.059,169.951,151.933,169.468,152.737z"/>
			<path style="fill:#FFFFFF;stroke:#263238;stroke-linecap:round;stroke-linejoin:round;stroke-miterlimit:10;" d="
				M165.032,159.309c0.322,1.77,4.344,2.413,4.665,1.931c0.092-0.138,0.079-0.368,0.013-0.626c-0.236-0.927-1.005-1.619-1.931-1.86
				C166.526,158.426,164.827,158.178,165.032,159.309z"/>
			<path style="fill:#FFFFFF;stroke:#263238;stroke-linecap:round;stroke-linejoin:round;stroke-miterlimit:10;" d="
				M164.242,161.825c0.322,1.77,3.615,1.684,3.936,1.202c0.092-0.138,0.808,0.361,0.742,0.103c-0.236-0.927-1.005-1.619-1.931-1.86
				C165.735,160.943,164.036,160.694,164.242,161.825z"/>
			<path style="fill:#FFFFFF;stroke:#263238;stroke-linecap:round;stroke-linejoin:round;stroke-miterlimit:10;" d="
				M168.021,155.633c0,0-1.77,1.287-1.448,2.091c0.322,0.804,2.252,2.091,3.057,2.574c0.804,0.483,1.93,0.161,1.448-0.804
				c-0.483-0.965-1.287-2.091-1.287-2.091L168.021,155.633z"/>
		</g>
	</g>
</g>
<g id="Ladder">
	<g>
		<polygon style="fill:#263238;stroke:#263238;stroke-linecap:round;stroke-linejoin:round;stroke-miterlimit:10;" points="
			435.249,422.527 435.249,399.563 402.883,399.563 402.883,376.599 370.516,376.599 370.516,353.635 341.46,353.635 
			341.46,326.025 253.671,326.025 253.671,460.054 467.616,460.114 467.616,422.527 		"/>
		<polygon style="fill:#C4C4C4;stroke:#263238;stroke-linecap:round;stroke-linejoin:round;stroke-miterlimit:10;" points="
			370.127,422.527 370.127,399.563 337.76,399.563 337.76,376.599 305.393,376.599 305.393,353.635 276.337,353.635 
			276.337,326.025 188.548,326.025 188.548,460.054 402.493,460.114 402.493,422.527 		"/>
		
			<rect x="305.393" y="353.635" style="fill:#263238;stroke:#263238;stroke-linecap:round;stroke-linejoin:round;stroke-miterlimit:10;" width="65.123" height="22.964"/>
		
			<rect x="337.884" y="376.669" style="fill:#263238;stroke:#263238;stroke-linecap:round;stroke-linejoin:round;stroke-miterlimit:10;" width="65.123" height="22.964"/>
		
			<rect x="370.093" y="399.463" style="fill:#263238;stroke:#263238;stroke-linecap:round;stroke-linejoin:round;stroke-miterlimit:10;" width="65.123" height="22.964"/>
	</g>
</g>
<g id="Floor">
	<line style="fill:none;stroke:#263238;stroke-miterlimit:10;" x1="30.778" y1="460.114" x2="485.286" y2="460.114"/>
</g>
<g id="Clocks">
	<g>
		<circle style="fill:#92E3A9;stroke:#263238;stroke-miterlimit:10;" cx="242.933" cy="392.55" r="40.839"/>
		
			<ellipse transform="matrix(0.9267 -0.3757 0.3757 0.9267 -129.6453 120.3862)" style="fill:#FFFFFF;stroke:#263238;stroke-linecap:round;stroke-linejoin:round;stroke-miterlimit:10;" cx="243.846" cy="392.602" rx="35.74" ry="35.74"/>
		<polyline style="fill:none;stroke:#263238;stroke-linecap:round;stroke-linejoin:round;stroke-miterlimit:10;" points="
			249.74,408.538 242.933,392.55 221.245,414.58 		"/>
		<path style="fill:#858585;stroke:#263238;stroke-linecap:round;stroke-linejoin:round;stroke-miterlimit:10;" d="M243.72,394.805
			c-1.216-0.07-2.146-1.113-2.076-2.329c0.07-1.217,1.113-2.146,2.329-2.076s2.146,1.113,2.076,2.329
			C245.979,393.945,244.936,394.875,243.72,394.805z"/>
	</g>
	<g>
		
			<ellipse transform="matrix(0.0978 -0.9952 0.9952 0.0978 -148.2576 694.7927)" style="fill:#858585;stroke:#263238;stroke-linecap:round;stroke-linejoin:round;stroke-miterlimit:10;" cx="309.092" cy="429.17" rx="27.451" ry="27.451"/>
		
			<circle style="fill:#FFFFFF;stroke:#263238;stroke-linecap:round;stroke-linejoin:round;stroke-miterlimit:10;" cx="308.618" cy="429.561" r="24.023"/>
		<polyline style="fill:none;stroke:#263238;stroke-linecap:round;stroke-linejoin:round;stroke-miterlimit:10;" points="
			298.893,421.703 308.618,429.561 315.01,409.62 		"/>
		<path style="fill:#858585;stroke:#263238;stroke-linecap:round;stroke-linejoin:round;stroke-miterlimit:10;" d="M309.562,430.705
			c0.632-0.521,0.721-1.456,0.2-2.088c-0.521-0.632-1.456-0.721-2.088-0.2c-0.632,0.521-0.721,1.456-0.2,2.088
			C307.996,431.137,308.93,431.226,309.562,430.705z"/>
	</g>
	<g>
		
			<ellipse transform="matrix(0.6072 -0.7945 0.7945 0.6072 -308.7354 203.9181)" style="fill:#858585;stroke:#263238;stroke-linecap:round;stroke-linejoin:round;stroke-miterlimit:10;" cx="51.884" cy="414.227" rx="27.45" ry="27.451"/>
		
			<ellipse transform="matrix(0.9987 -0.0503 0.0503 0.9987 -20.7468 3.1543)" style="fill:#FFFFFF;stroke:#263238;stroke-linecap:round;stroke-linejoin:round;stroke-miterlimit:10;" cx="52.296" cy="413.771" rx="24.023" ry="24.023"/>
		<polyline style="fill:none;stroke:#263238;stroke-linecap:round;stroke-linejoin:round;stroke-miterlimit:10;" points="
			63.059,420.133 52.296,413.771 48.867,434.429 		"/>
		<path style="fill:#858585;stroke:#263238;stroke-linecap:round;stroke-linejoin:round;stroke-miterlimit:10;" d="M51.196,412.776
			c-0.549,0.608-0.502,1.545,0.105,2.095c0.608,0.549,1.545,0.502,2.095-0.105c0.549-0.607,0.502-1.545-0.105-2.095
			C52.683,412.122,51.745,412.169,51.196,412.776z"/>
	</g>
	<g>
		
			<ellipse transform="matrix(0.9973 -0.0734 0.0734 0.9973 -7.288 30.0055)" style="fill:#858585;stroke:#263238;stroke-linecap:round;stroke-linejoin:round;stroke-miterlimit:10;" cx="404.337" cy="114.097" rx="40.839" ry="40.839"/>
		
			<ellipse transform="matrix(0.9979 -0.0642 0.0642 0.9979 -6.5231 26.2193)" style="fill:#FFFFFF;stroke:#263238;stroke-linecap:round;stroke-linejoin:round;stroke-miterlimit:10;" cx="405.033" cy="114.69" rx="35.74" ry="35.74"/>
		<polyline style="fill:none;stroke:#263238;stroke-linecap:round;stroke-linejoin:round;stroke-miterlimit:10;" points="
			396.05,130.978 405.033,114.69 374.162,110.507 		"/>
		<path style="fill:#858585;stroke:#263238;stroke-linecap:round;stroke-linejoin:round;stroke-miterlimit:10;" d="M406.464,113.01
			c-0.928-0.79-2.32-0.678-3.11,0.25c-0.79,0.928-0.678,2.32,0.25,3.11c0.928,0.79,2.32,0.678,3.11-0.25
			C407.503,115.192,407.391,113.8,406.464,113.01z"/>
	</g>
	<g>
		<circle style="fill:#92E3A9;stroke:#263238;stroke-miterlimit:10;" cx="329.286" cy="244.576" r="27.451"/>
		
			<circle style="fill:#FFFFFF;stroke:#263238;stroke-linecap:round;stroke-linejoin:round;stroke-miterlimit:10;" cx="329.719" cy="245.012" r="24.023"/>
		<polyline style="fill:none;stroke:#263238;stroke-linecap:round;stroke-linejoin:round;stroke-miterlimit:10;" points="
			322.78,255.413 329.719,245.012 309.279,240.462 		"/>
		<path style="fill:#858585;stroke:#263238;stroke-linecap:round;stroke-linejoin:round;stroke-miterlimit:10;" d="M330.772,243.968
			c-0.577-0.582-1.516-0.585-2.097-0.009c-0.582,0.577-0.586,1.516-0.009,2.097c0.577,0.582,1.516,0.586,2.097,0.009
			C331.345,245.489,331.349,244.55,330.772,243.968z"/>
	</g>
	<g>
		
			<ellipse transform="matrix(0.3691 -0.9294 0.9294 0.3691 115.0179 320.0302)" style="fill:#92E3A9;stroke:#263238;stroke-miterlimit:10;" cx="293.24" cy="75.294" rx="27.451" ry="27.451"/>
		
			<ellipse transform="matrix(0.6695 -0.7428 0.7428 0.6695 41.4696 242.8745)" style="fill:#FFFFFF;stroke:#263238;stroke-linecap:round;stroke-linejoin:round;stroke-miterlimit:10;" cx="293.652" cy="74.838" rx="24.023" ry="24.023"/>
		<polyline style="fill:none;stroke:#263238;stroke-linecap:round;stroke-linejoin:round;stroke-miterlimit:10;" points="
			304.416,81.2 293.652,74.838 290.223,95.496 		"/>
		<path style="fill:#858585;stroke:#263238;stroke-linecap:round;stroke-linejoin:round;stroke-miterlimit:10;" d="M292.552,73.843
			c-0.549,0.607-0.502,1.545,0.105,2.095c0.607,0.549,1.545,0.502,2.095-0.105c0.549-0.608,0.502-1.545-0.105-2.095
			C294.039,73.189,293.102,73.236,292.552,73.843z"/>
	</g>
	<g>
		
			<ellipse transform="matrix(0.577 -0.8167 0.8167 0.577 -139.7427 548.5984)" style="fill:#858585;stroke:#263238;stroke-linecap:round;stroke-linejoin:round;stroke-miterlimit:10;" cx="459.78" cy="409.215" rx="27.451" ry="27.451"/>
		
			<ellipse transform="matrix(0.7245 -0.6893 0.6893 0.7245 -154.9639 429.8384)" style="fill:#FFFFFF;stroke:#263238;stroke-linecap:round;stroke-linejoin:round;stroke-miterlimit:10;" cx="460.192" cy="408.759" rx="24.023" ry="24.023"/>
		<polyline style="fill:none;stroke:#263238;stroke-linecap:round;stroke-linejoin:round;stroke-miterlimit:10;" points="
			470.955,415.122 460.192,408.759 456.763,429.417 		"/>
		<path style="fill:#858585;stroke:#263238;stroke-linecap:round;stroke-linejoin:round;stroke-miterlimit:10;" d="M459.092,407.765
			c-0.549,0.608-0.502,1.545,0.105,2.095c0.608,0.549,1.545,0.502,2.095-0.105c0.549-0.608,0.502-1.545-0.105-2.095
			C460.579,407.11,459.641,407.157,459.092,407.765z"/>
	</g>
	<g>
		
			<ellipse transform="matrix(0.1665 -0.986 0.986 0.1665 -65.7733 196.9779)" style="fill:#858585;stroke:#263238;stroke-linecap:round;stroke-linejoin:round;stroke-miterlimit:10;" cx="83.63" cy="137.395" rx="27.451" ry="27.45"/>
		
			<ellipse transform="matrix(0.9995 -0.0304 0.0304 0.9995 -4.118 2.6141)" style="fill:#FFFFFF;stroke:#263238;stroke-linecap:round;stroke-linejoin:round;stroke-miterlimit:10;" cx="84.042" cy="136.939" rx="24.023" ry="24.023"/>
		<polyline style="fill:none;stroke:#263238;stroke-linecap:round;stroke-linejoin:round;stroke-miterlimit:10;" points="
			94.806,143.302 84.043,136.939 80.614,157.597 		"/>
		<path style="fill:#858585;stroke:#263238;stroke-linecap:round;stroke-linejoin:round;stroke-miterlimit:10;" d="M82.942,135.945
			c-0.549,0.608-0.502,1.545,0.105,2.095c0.608,0.549,1.546,0.502,2.095-0.105c0.549-0.607,0.502-1.545-0.105-2.095
			C84.429,135.29,83.492,135.337,82.942,135.945z"/>
	</g>
</g>
</svg>
