<?xml version="1.0" encoding="utf-8"?>
<!-- Generator: Adobe Illustrator 27.5.0, SVG Export Plug-In . SVG Version: 6.00 Build 0)  -->
<svg version="1.1" xmlns="http://www.w3.org/2000/svg" xmlns:xlink="http://www.w3.org/1999/xlink" x="0px" y="0px"
	 viewBox="0 0 500 500" style="enable-background:new 0 0 500 500;" xml:space="preserve">
<g id="Background_Simple">
	<g>
		<path style="fill:#92E3A9;" d="M414.221,100.557c-8.893-15.127-21.333-27.51-37.059-37.608
			c-52.376-33.631-123.555-45.74-184.744-36.602c-43.711,6.528-72.852,36.244-91.495,74.961
			C78.895,147.057,58.898,192.572,33.822,237C5.036,288-7.868,341,54.667,385c54.119,38.078,121.981,28.2,184.015,26.98
			c20.558-0.405,41.263,0.277,61.495,4.255c40.198,7.906,79.246,36.005,118.781,9.764c30.051-19.946,47.752-57.635,56.328-91.775
			c5.112-20.349,9.13-42.799,7.238-64.396c-2.073-23.66-12.986-41.475-24.213-61.626c-14.123-25.348-25.157-52.441-32.777-80.479
			C422.838,117.809,419.053,108.778,414.221,100.557z"/>
		<path style="opacity:0.7;fill:#FFFFFF;" d="M414.221,100.557c-8.893-15.127-21.333-27.51-37.059-37.608
			c-52.376-33.631-123.555-45.74-184.744-36.602c-43.711,6.528-72.852,36.244-91.495,74.961
			C78.895,147.057,58.898,192.572,33.822,237C5.036,288-7.868,341,54.667,385c54.119,38.078,121.981,28.2,184.015,26.98
			c20.558-0.405,41.263,0.277,61.495,4.255c40.198,7.906,79.246,36.005,118.781,9.764c30.051-19.946,47.752-57.635,56.328-91.775
			c5.112-20.349,9.13-42.799,7.238-64.396c-2.073-23.66-12.986-41.475-24.213-61.626c-14.123-25.348-25.157-52.441-32.777-80.479
			C422.838,117.809,419.053,108.778,414.221,100.557z"/>
	</g>
</g>
<g id="Floor">
	<g>
		
			<line style="fill:none;stroke:#263238;stroke-linecap:round;stroke-linejoin:round;stroke-miterlimit:10;" x1="34" y1="455.039" x2="18" y2="455.039"/>
		
			<line style="fill:none;stroke:#263238;stroke-linecap:round;stroke-linejoin:round;stroke-miterlimit:10;" x1="484.333" y1="455.039" x2="42" y2="455.039"/>
	</g>
</g>
<g id="Plant">
	<g>
		<path style="fill:none;stroke:#263238;stroke-width:2;stroke-linecap:round;stroke-miterlimit:10;" d="M455.953,305.36
			c0,0-11.176-6.209-12.003,7.864c-0.828,14.073-2.897,105.547-2.897,105.547"/>
		<path style="fill:none;stroke:#263238;stroke-width:2;stroke-linecap:round;stroke-miterlimit:10;" d="M438.145,314.464
			c0,0,9.115,20.283,4.976,103.065"/>
		<g>
			<path style="fill:#92E3A9;" d="M447.1,308.193c0,0-4.275,2.739-6.707-0.396c-2.433-3.135,1.645-8.877-1.949-11.333
				c-3.594-2.456-9.798,1.292-9.798,1.292s4.778,1.404,4.624,4.012s-2.456,3.594-2.762,2.454c-0.307-1.14-2.585-6.883-6.466-4.495
				c-3.88,2.389-4.473,6.093-4.473,6.093s9.031-0.963,9.578,2.435c0.547,3.398-3.704-0.592-7.431-0.812
				c-3.726-0.22-7.124,0.328-6.883,2.585c0.241,2.258-0.352,5.962-0.352,5.962s3.157-2.805,7.256-2.563
				c4.099,0.242,3.945,2.85,0.219,2.63c-3.726-0.22-6.927,3.331-6.927,3.331s3.397,5.809,7.714,8.681
				c4.318,2.872,5.874,1.842,6.379-0.372c0.505-2.214-0.656-7.891,1.952-7.737s-4.32,9.841-0.988,10.412
				c3.332,0.57,6.006-0.394,6.883-2.585c0.877-2.192,0.877-2.192,0.877-2.192s-1.161-5.677-0.656-7.891
				c0.505-2.214,1.118,0.066,1.709,2.718c0.591,2.652,0.963,9.031,2.103,8.724c1.14-0.307,4.779-4.953,5.635-6.772
				c0.855-1.819-4.799-7.388-4.733-8.506c0.066-1.118,4.428,1.009,5.107,2.171c0.679,1.162,1.337,2.697,1.337,2.697
				s2.718-1.709,2.654-6.948C450.937,306.549,447.1,308.193,447.1,308.193z"/>
			<path style="opacity:0.3;fill:#263238;" d="M447.1,308.193c0,0-4.275,2.739-6.707-0.396c-2.433-3.135,1.645-8.877-1.949-11.333
				c-3.594-2.456-9.798,1.292-9.798,1.292s4.778,1.404,4.624,4.012s-2.456,3.594-2.762,2.454c-0.307-1.14-2.585-6.883-6.466-4.495
				c-3.88,2.389-4.473,6.093-4.473,6.093s9.031-0.963,9.578,2.435c0.547,3.398-3.704-0.592-7.431-0.812
				c-3.726-0.22-7.124,0.328-6.883,2.585c0.241,2.258-0.352,5.962-0.352,5.962s3.157-2.805,7.256-2.563
				c4.099,0.242,3.945,2.85,0.219,2.63c-3.726-0.22-6.927,3.331-6.927,3.331s3.397,5.809,7.714,8.681
				c4.318,2.872,5.874,1.842,6.379-0.372c0.505-2.214-0.656-7.891,1.952-7.737s-4.32,9.841-0.988,10.412
				c3.332,0.57,6.006-0.394,6.883-2.585c0.877-2.192,0.877-2.192,0.877-2.192s-1.161-5.677-0.656-7.891
				c0.505-2.214,1.118,0.066,1.709,2.718c0.591,2.652,0.963,9.031,2.103,8.724c1.14-0.307,4.779-4.953,5.635-6.772
				c0.855-1.819-4.799-7.388-4.733-8.506c0.066-1.118,4.428,1.009,5.107,2.171c0.679,1.162,1.337,2.697,1.337,2.697
				s2.718-1.709,2.654-6.948C450.937,306.549,447.1,308.193,447.1,308.193z"/>
			<path style="fill:none;stroke:#263238;stroke-linecap:round;stroke-miterlimit:10;" d="M425.429,320.477
				c2.788-3.446,6.896-8.109,10.339-10.335"/>
			<path style="fill:none;stroke:#263238;stroke-linecap:round;stroke-miterlimit:10;" d="M422.197,324.672
				c0,0,0.716-0.995,1.876-2.486"/>
			<path style="fill:none;stroke:#263238;stroke-linecap:round;stroke-miterlimit:10;" d="M437.587,310.997
				c0,0,4.142,5.853,4.908,11.881"/>
			<path style="fill:none;stroke:#263238;stroke-linecap:round;stroke-miterlimit:10;" d="M432.895,314.459
				c0,0,1.162-0.679,0.722,6.773"/>
			<path style="fill:none;stroke:#263238;stroke-linecap:round;stroke-miterlimit:10;" d="M435.921,307.533
				c0,0,2.368-2.104,1.119-6.291"/>
			
				<line style="fill:none;stroke:#263238;stroke-linecap:round;stroke-miterlimit:10;" x1="432.721" y1="311.083" x2="431.033" y2="307.992"/>
			<path style="fill:none;stroke:#263238;stroke-linecap:round;stroke-miterlimit:10;" d="M429.169,314.239
				c0,0-5.37-4.056-8.723-4.254"/>
		</g>
		<g>
			<path style="fill:#92E3A9;" d="M462.337,297.148c0,0-0.171,6.147-4.968,6.446c-4.797,0.299-7.766-7.698-12.675-5.773
				c-4.909,1.925-5.385,10.69-5.385,10.69s4.662-3.827,7.169-1.895c2.507,1.932,1.925,4.909,0.574,4.439
				c-1.35-0.47-8.654-2.103-8.907,3.41c-0.253,5.513,3.052,8.631,3.052,8.631s5.192-9.698,8.967-7.93
				c3.775,1.768-3.118,3.305-5.878,6.886c-2.76,3.581-4.528,7.356-2.103,8.654c2.425,1.298,5.729,4.416,5.729,4.416
				s-0.657-5.073,2.379-9.012c3.036-3.939,5.543-2.007,2.783,1.574c-2.76,3.581-1.387,9.206-1.387,9.206s8.131,0.559,13.95-1.806
				c5.819-2.365,5.848-4.626,3.976-6.64c-1.872-2.014-8.348-4.722-6.416-7.228c1.932-2.507,6.909,11.033,9.751,8.086
				c2.842-2.947,3.7-6.281,2.103-8.654c-1.597-2.372-1.597-2.372-1.597-2.372s-6.475-2.708-8.348-4.722
				c-1.873-2.014,0.828-1.074,3.887,0.142c3.059,1.216,9.698,5.192,10.168,3.841c0.47-1.35-1.701-8.161-2.94-10.257
				c-1.238-2.096-10.668-0.231-11.742-1.059s4.028-3.745,5.655-3.633c1.626,0.112,3.611,0.5,3.611,0.5s0.142-3.887-5.148-7.392
				C463.307,292.188,462.337,297.148,462.337,297.148z"/>
			<path style="opacity:0.2;fill:#263238;" d="M462.337,297.148c0,0-0.171,6.147-4.968,6.446c-4.797,0.299-7.766-7.698-12.675-5.773
				c-4.909,1.925-5.385,10.69-5.385,10.69s4.662-3.827,7.169-1.895c2.507,1.932,1.925,4.909,0.574,4.439
				c-1.35-0.47-8.654-2.103-8.907,3.41c-0.253,5.513,3.052,8.631,3.052,8.631s5.192-9.698,8.967-7.93
				c3.775,1.768-3.118,3.305-5.878,6.886c-2.76,3.581-4.528,7.356-2.103,8.654c2.425,1.298,5.729,4.416,5.729,4.416
				s-0.657-5.073,2.379-9.012c3.036-3.939,5.543-2.007,2.783,1.574c-2.76,3.581-1.387,9.206-1.387,9.206s8.131,0.559,13.95-1.806
				c5.819-2.365,5.848-4.626,3.976-6.64c-1.872-2.014-8.348-4.722-6.416-7.228c1.932-2.507,6.909,11.033,9.751,8.086
				c2.842-2.947,3.7-6.281,2.103-8.654c-1.597-2.372-1.597-2.372-1.597-2.372s-6.475-2.708-8.348-4.722
				c-1.873-2.014,0.828-1.074,3.887,0.142c3.059,1.216,9.698,5.192,10.168,3.841c0.47-1.35-1.701-8.161-2.94-10.257
				c-1.238-2.096-10.668-0.231-11.742-1.059s4.028-3.745,5.655-3.633c1.626,0.112,3.611,0.5,3.611,0.5s0.142-3.887-5.148-7.392
				C463.307,292.188,462.337,297.148,462.337,297.148z"/>
			<path style="fill:none;stroke:#263238;stroke-linecap:round;stroke-miterlimit:10;" d="M459.864,327.22
				c-1.55-5.14-3.419-12.432-3.3-17.396"/>
			<path style="fill:none;stroke:#263238;stroke-linecap:round;stroke-miterlimit:10;" d="M461.861,333.315
				c0,0-0.509-1.395-1.211-3.573"/>
			<path style="fill:none;stroke:#263238;stroke-linecap:round;stroke-miterlimit:10;" d="M458.66,308.585
				c0,0,8.684-0.157,15.241,3.185"/>
			<path style="fill:none;stroke:#263238;stroke-linecap:round;stroke-miterlimit:10;" d="M458.929,315.642
				c0,0,0.112-1.626,7.274,3.894"/>
			<path style="fill:none;stroke:#263238;stroke-linecap:round;stroke-miterlimit:10;" d="M454.057,307.891
				c0,0-0.493-3.805-5.536-5.408"/>
			
				<line style="fill:none;stroke:#263238;stroke-linecap:round;stroke-miterlimit:10;" x1="455.43" y1="313.516" x2="451.185" y2="313.099"/>
			<path style="fill:none;stroke:#263238;stroke-linecap:round;stroke-miterlimit:10;" d="M456.169,319.223
				c0,0-7.721,2.612-10.205,5.834"/>
		</g>
		<path style="fill:none;stroke:#263238;stroke-width:2;stroke-linecap:round;stroke-miterlimit:10;" d="M410.836,338.059
			c0,0,24.421,16.142,24.007,78.643"/>
		<g>
			<path style="fill:#92E3A9;" d="M440.946,333.794c0,0-0.778,7.077-6.341,6.969c-5.563-0.108-8.235-9.616-14.081-7.858
				c-5.846,1.758-7.224,11.828-7.224,11.828s5.741-3.976,8.451-1.51c2.71,2.466,1.758,5.846,0.244,5.176
				c-1.514-0.67-9.787-3.244-10.6,3.094c-0.813,6.338,2.707,10.247,2.707,10.247s6.906-10.701,11.095-8.305
				c4.189,2.396-3.91,3.519-7.433,7.391c-3.523,3.872-5.919,8.061-3.244,9.787c2.675,1.727,6.195,5.637,6.195,5.637
				s-0.279-5.915,3.596-10.174c3.875-4.259,6.585-1.793,3.062,2.079c-3.523,3.872-2.469,10.492-2.469,10.492
				s9.33,1.413,16.268-0.767c6.937-2.18,7.185-4.785,5.214-7.286c-1.971-2.501-9.187-6.236-6.721-8.947
				c2.466-2.71,6.931,13.383,10.488,10.251c3.558-3.132,4.862-6.899,3.244-9.787c-1.618-2.888-1.618-2.888-1.618-2.888
				s-7.217-3.736-9.187-6.236c-1.971-2.501,1.057-1.161,4.472,0.53c3.415,1.692,10.701,6.906,11.371,5.392
				c0.67-1.514-1.193-9.578-2.424-12.114s-12.288-1.273-13.449-2.33c-1.162-1.057,5.002-3.941,6.868-3.659
				c1.866,0.283,4.119,0.917,4.119,0.917s0.53-4.471-5.242-9.016C442.533,328.161,440.946,333.794,440.946,333.794z"/>
			<path style="opacity:0.3;fill:#263238;" d="M440.946,333.794c0,0-0.778,7.077-6.341,6.969c-5.563-0.108-8.235-9.616-14.081-7.858
				c-5.846,1.758-7.224,11.828-7.224,11.828s5.741-3.976,8.451-1.51c2.71,2.466,1.758,5.846,0.244,5.176
				c-1.514-0.67-9.787-3.244-10.6,3.094c-0.813,6.338,2.707,10.247,2.707,10.247s6.906-10.701,11.095-8.305
				c4.189,2.396-3.91,3.519-7.433,7.391c-3.523,3.872-5.919,8.061-3.244,9.787c2.675,1.727,6.195,5.637,6.195,5.637
				s-0.279-5.915,3.596-10.174c3.875-4.259,6.585-1.793,3.062,2.079c-3.523,3.872-2.469,10.492-2.469,10.492
				s9.33,1.413,16.268-0.767c6.937-2.18,7.185-4.785,5.214-7.286c-1.971-2.501-9.187-6.236-6.721-8.947
				c2.466-2.71,6.931,13.383,10.488,10.251c3.558-3.132,4.862-6.899,3.244-9.787c-1.618-2.888-1.618-2.888-1.618-2.888
				s-7.217-3.736-9.187-6.236c-1.971-2.501,1.057-1.161,4.472,0.53c3.415,1.692,10.701,6.906,11.371,5.392
				c0.67-1.514-1.193-9.578-2.424-12.114s-12.288-1.273-13.449-2.33c-1.162-1.057,5.002-3.941,6.868-3.659
				c1.866,0.283,4.119,0.917,4.119,0.917s0.53-4.471-5.242-9.016C442.533,328.161,440.946,333.794,440.946,333.794z"/>
			<path style="fill:none;stroke:#263238;stroke-linecap:round;stroke-miterlimit:10;" d="M435.254,368.26
				c-1.304-6.078-2.772-14.668-2.166-20.385"/>
			<path style="fill:none;stroke:#263238;stroke-linecap:round;stroke-miterlimit:10;" d="M436.984,375.482
				c0,0-0.455-1.658-1.06-4.237"/>
			<path style="fill:none;stroke:#263238;stroke-linecap:round;stroke-miterlimit:10;" d="M435.624,346.644
				c0,0,10.035,0.638,17.286,5.113"/>
			<path style="fill:none;stroke:#263238;stroke-linecap:round;stroke-miterlimit:10;" d="M435.268,354.813
				c0,0,0.282-1.866,8.026,5.18"/>
			<path style="fill:none;stroke:#263238;stroke-linecap:round;stroke-miterlimit:10;" d="M430.378,345.409
				c0,0-0.209-4.437-5.877-6.763"/>
			
				<line style="fill:none;stroke:#263238;stroke-linecap:round;stroke-miterlimit:10;" x1="431.431" y1="352.029" x2="426.572" y2="351.147"/>
			<path style="fill:none;stroke:#263238;stroke-linecap:round;stroke-miterlimit:10;" d="M431.745,358.684
				c0,0-9.156,2.285-12.326,5.769"/>
		</g>
		<path style="fill:none;stroke:#263238;stroke-width:2;stroke-linecap:round;stroke-miterlimit:10;" d="M420.356,387.314
			c0,0,15.729,12.003,17.384,29.802l-3.311-59.603"/>
		<path style="fill:none;stroke:#263238;stroke-width:2;stroke-linecap:round;stroke-miterlimit:10;" d="M458.436,378.622
			c-20.695-3.725-20.695,38.494-20.695,38.494"/>
		<path style="fill:none;stroke:#263238;stroke-width:2;stroke-linecap:round;stroke-miterlimit:10;" d="M440.224,416.702
			c0,0-12.003-87.335,22.765-87.335"/>
		<g>
			<path style="fill:#92E3A9;" d="M450.55,376.111c-2.827-3.18-8.834-3.18-12.368,4.947c-3.534,8.127-0.353,6.714-0.353,6.714
				s6.714-2.12,10.954-3.534c4.24-1.414,9.894-4.947,10.248-2.827c0.353,2.12-2.827,4.24-6.714,4.947
				c-3.887,0.707-14.135,3.534-13.075,5.654c1.06,2.12,3.534,8.481,3.534,8.481s4.947-4.241,9.541-7.067
				c4.594-2.827,7.421-1.767,4.947,1.413c-2.474,3.18-9.541,6.714-8.127,10.954c1.413,4.24,9.894,9.541,9.894,9.541
				s1.06-8.834,3.534-11.661c2.474-2.827,2.474,0.353,1.767,5.3c-0.707,4.947-0.707,6.361-0.707,6.361l9.894,3.534
				c0,0,3.534-5.301,5.301-7.067c1.767-1.767,1.767-1.767,1.767-1.767s-7.774-6.714-8.127-10.954c-0.353-4.24,5.3,0,7.067,0.707
				c1.767,0.707,4.594,5.654,4.594,5.654s1.767-8.127,2.12-10.954c0.353-2.827,0.353-2.827,0.353-2.827s-7.421-2.827-10.248-2.827
				c-2.827,0-4.24,2.12-4.24-0.707c0-2.827,2.827-4.594,6.007-4.24c3.18,0.353,8.481,2.12,8.481,2.12s2.12-1.767,1.414-7.067
				c-0.707-5.301-2.474-5.301-6.714-3.887c-4.24,1.414-7.067,4.594-10.248,4.594c-3.18,0-1.414-3.887,0.707-4.947
				c2.12-1.06,7.421-3.18,8.481-3.534c1.06-0.353-5.654-5.301-9.188-6.007c-3.534-0.707-8.109,1.783-7.774,5.3
				C463.978,377.878,453.377,379.292,450.55,376.111z"/>
			<path style="fill:none;stroke:#263238;stroke-linecap:round;stroke-miterlimit:10;" d="M473.297,412.495
				c0.105,1.064,0.181,2.13,0.221,3.193"/>
			<path style="fill:none;stroke:#263238;stroke-linecap:round;stroke-miterlimit:10;" d="M466.199,387.128
				c2.482,5.735,5.352,13.644,6.652,21.897"/>
			<path style="fill:none;stroke:#263238;stroke-linecap:round;stroke-miterlimit:10;" d="M464.926,384.291
				c-1.75-3.764-3.068-6.059-3.068-6.059s3.18-1.413,4.594-4.24c1.414-2.827,3.534-4.24,3.534-4.24"/>
			<path style="fill:none;stroke:#263238;stroke-linecap:round;stroke-miterlimit:10;" d="M449.49,390.246
				c0,0,12.721-5.301,12.721-4.24"/>
			<path style="fill:none;stroke:#263238;stroke-linecap:round;stroke-miterlimit:10;" d="M469.278,383.532
				c0,0,5.654-2.827,10.601-2.827"/>
			<path style="fill:none;stroke:#263238;stroke-linecap:round;stroke-miterlimit:10;" d="M467.158,392.013
				c0,0-3.18,2.474-6.714,6.714c-3.534,4.24-4.947,8.127-4.947,8.127"/>
			<path style="fill:none;stroke:#263238;stroke-linecap:round;stroke-miterlimit:10;" d="M471.045,393.426
				c0,0,7.421-2.12,11.308,1.413"/>
		</g>
		<g>
			<path style="fill:#92E3A9;" d="M484.487,345.679c-3.847-2.275-8.102-2.325-10.187-4.727c-2.085-2.402,2.009-3.616,4.199-2.71
				c2.19,0.906,7.266,3.519,8.228,4.088c0.962,0.569,0.296-7.744-1.487-10.876c-1.783-3.132-6.662-4.955-9.099-2.396
				c-5.14,5.399-13.157-1.68-12.609-5.9s-3.39-8.756-11.844-6.096c-8.454,2.66-5.302,4.135-5.302,4.135s6.003,3.68,9.85,5.956
				c3.847,2.275,10.222,4.228,8.853,5.885c-1.369,1.657-5.055,0.645-8.137-1.827c-3.082-2.472-11.935-8.357-12.841-6.167
				c-0.906,2.19-4.088,8.228-4.088,8.228s6.445,0.956,11.591,2.572c5.146,1.616,6.199,4.445,2.176,4.662
				c-4.023,0.217-11.325-2.803-13.6,1.044c-2.275,3.847-0.718,13.726-0.718,13.726s7.366-4.991,11.122-4.976
				c3.756,0.015,1.355,2.099-2.844,4.809c-4.199,2.71-5.266,3.636-5.266,3.636l3.818,9.788c0,0,6.319-0.806,8.812-0.63
				c2.492,0.176,2.492,0.176,2.492,0.176s-0.026-10.272,2.944-13.319c2.97-3.047,3.475,4.003,4.099,5.8
				c0.625,1.797-1.258,7.175-1.258,7.175s7.296-3.994,9.662-5.58c2.367-1.586,2.367-1.586,2.367-1.586s-2.73-7.457-4.583-9.592
				c-1.853-2.135-4.381-1.812-2.246-3.665c2.135-1.853,5.322-0.877,7.14,1.757c1.818,2.633,3.959,7.794,3.959,7.794
				s2.724,0.443,6.263-3.566C489.493,349.289,488.334,347.955,484.487,345.679z M451.045,356.99c-2.827-1.413,3.887-4.24,3.887-4.24
				C457.406,352.396,453.872,358.404,451.045,356.99z M455.806,343.798c-1.205-0.603,2.41-1.808,2.41-1.808
				C463.438,342.994,457.011,344.4,455.806,343.798z"/>
			<path style="fill:none;stroke:#263238;stroke-linecap:round;stroke-miterlimit:10;" d="M450.97,364.189
				c-0.735,0.777-1.49,1.533-2.266,2.261"/>
			<path style="fill:none;stroke:#263238;stroke-linecap:round;stroke-miterlimit:10;" d="M465.472,342.198
				c-2.704,5.634-6.794,12.985-12.174,19.377"/>
			<path style="fill:none;stroke:#263238;stroke-linecap:round;stroke-miterlimit:10;" d="M466.78,339.377
				c1.695-3.79,2.564-6.289,2.564-6.289s3.152,1.475,6.214,0.689c3.061-0.786,5.519-0.111,5.519-0.111"/>
			<path style="fill:none;stroke:#263238;stroke-linecap:round;stroke-miterlimit:10;" d="M452.164,331.625
				c0,0,12.342,6.131,11.542,6.826"/>
			<path style="fill:none;stroke:#263238;stroke-linecap:round;stroke-miterlimit:10;" d="M470.207,342.167
				c0,0,5.841,2.416,9.084,6.152"/>
			<path style="fill:none;stroke:#263238;stroke-linecap:round;stroke-miterlimit:10;" d="M462.413,346.125
				c0,0-3.953-0.78-9.471-0.669c-5.519,0.112-9.38,1.592-9.38,1.592"/>
			<path style="fill:none;stroke:#263238;stroke-linecap:round;stroke-miterlimit:10;" d="M463.893,349.987
				c0,0,6.466,4.214,6.346,9.466"/>
		</g>
		<g>
			<path style="fill:#92E3A9;" d="M429.578,394.643c-3.096-1.831-6.52-1.871-8.198-3.804c-1.678-1.933,1.616-2.91,3.379-2.18
				c1.763,0.729,5.848,2.832,6.621,3.289c0.774,0.458,0.238-6.232-1.197-8.752c-1.435-2.52-5.361-3.988-7.322-1.928
				c-4.137,4.344-10.588-1.352-10.147-4.748c0.441-3.396-2.728-7.046-9.531-4.906c-6.803,2.141-4.266,3.327-4.266,3.327
				s4.831,2.961,7.927,4.793c3.096,1.831,8.226,3.403,7.124,4.736c-1.102,1.333-4.068,0.519-6.548-1.47
				c-2.48-1.989-9.604-6.725-10.333-4.962c-0.729,1.763-3.289,6.622-3.289,6.622s5.187,0.769,9.328,2.069
				c4.141,1.3,4.988,3.577,1.751,3.752c-3.238,0.175-9.113-2.256-10.945,0.84c-1.831,3.096-0.578,11.046-0.578,11.046
				s5.928-4.016,8.95-4.005c3.023,0.012,1.09,1.69-2.289,3.87c-3.379,2.18-4.238,2.926-4.238,2.926l3.073,7.877
				c0,0,5.085-0.649,7.091-0.507c2.006,0.142,2.006,0.142,2.006,0.142s-0.021-8.266,2.369-10.718
				c2.39-2.452,2.796,3.221,3.299,4.668c0.503,1.447-1.012,5.774-1.012,5.774s5.871-3.214,7.775-4.491
				c1.904-1.277,1.904-1.277,1.904-1.277s-2.197-6.001-3.689-7.719s-3.526-1.458-1.808-2.95c1.718-1.491,4.283-0.706,5.746,1.413
				c1.463,2.119,3.186,6.272,3.186,6.272s2.192,0.356,5.041-2.87C433.606,397.548,432.674,396.474,429.578,394.643z
				 M402.666,403.745c-2.275-1.137,3.128-3.413,3.128-3.413C407.784,400.048,404.941,404.883,402.666,403.745z M406.496,393.129
				c-0.97-0.485,1.94-1.455,1.94-1.455C412.638,392.482,407.466,393.613,406.496,393.129z"/>
			<path style="fill:none;stroke:#263238;stroke-linecap:round;stroke-miterlimit:10;" d="M402.605,409.538
				c-0.591,0.626-1.199,1.234-1.824,1.819"/>
			<path style="fill:none;stroke:#263238;stroke-linecap:round;stroke-miterlimit:10;" d="M414.276,391.841
				c-2.176,4.534-5.468,10.45-9.797,15.594"/>
			<path style="fill:none;stroke:#263238;stroke-linecap:round;stroke-miterlimit:10;" d="M415.328,389.571
				c1.364-3.05,2.064-5.061,2.064-5.061s2.537,1.187,5,0.555c2.464-0.632,4.441-0.09,4.441-0.09"/>
			<path style="fill:none;stroke:#263238;stroke-linecap:round;stroke-miterlimit:10;" d="M403.566,383.333
				c0,0,9.932,4.934,9.288,5.493"/>
			<path style="fill:none;stroke:#263238;stroke-linecap:round;stroke-miterlimit:10;" d="M418.086,391.816
				c0,0,4.701,1.944,7.311,4.951"/>
			<path style="fill:none;stroke:#263238;stroke-linecap:round;stroke-miterlimit:10;" d="M411.813,395.002
				c0,0-3.181-0.628-7.622-0.538c-4.441,0.09-7.549,1.281-7.549,1.281"/>
			<path style="fill:none;stroke:#263238;stroke-linecap:round;stroke-miterlimit:10;" d="M413.005,398.109
				c0,0,5.203,3.391,5.107,7.617"/>
		</g>
		<g>
			<path style="fill:#92E3A9;" d="M416.953,336.291c0,0-3.887,2.827-6.361,0c-2.474-2.827,1.06-8.481-2.474-10.601
				c-3.534-2.12-9.188,1.767-9.188,1.767s4.594,1.06,4.594,3.534c0,2.474-2.12,3.534-2.473,2.474
				c-0.353-1.06-2.827-6.361-6.361-3.887c-3.534,2.474-3.887,6.007-3.887,6.007s8.481-1.413,9.188,1.767
				c0.707,3.18-3.534-0.353-7.067-0.353c-3.534,0-6.714,0.707-6.361,2.827c0.353,2.12,0,5.654,0,5.654s2.827-2.827,6.714-2.827
				s3.887,2.474,0.353,2.474c-3.534,0-6.361,3.534-6.361,3.534s3.534,5.3,7.774,7.774c4.24,2.474,5.654,1.413,6.007-0.707
				c0.353-2.12-1.06-7.421,1.413-7.421c2.474,0-3.534,9.541-0.353,9.894c3.18,0.353,5.654-0.707,6.361-2.827
				c0.707-2.12,0.707-2.12,0.707-2.12s-1.413-5.301-1.06-7.421c0.353-2.12,1.06,0,1.767,2.474c0.707,2.473,1.413,8.481,2.473,8.127
				c1.06-0.353,4.24-4.947,4.947-6.714c0.707-1.767-4.947-6.714-4.947-7.774c0-1.06,4.24,0.707,4.947,1.767
				c0.707,1.06,1.413,2.474,1.413,2.474s2.474-1.767,2.12-6.714C420.487,334.524,416.953,336.291,416.953,336.291z"/>
			<path style="fill:none;stroke:#263238;stroke-linecap:round;stroke-miterlimit:10;" d="M397.158,349.108
				c2.442-3.412,6.065-8.048,9.194-10.343"/>
			<path style="fill:none;stroke:#263238;stroke-linecap:round;stroke-miterlimit:10;" d="M394.338,353.253
				c0,0,0.621-0.98,1.634-2.454"/>
			<path style="fill:none;stroke:#263238;stroke-linecap:round;stroke-miterlimit:10;" d="M408.119,339.471
				c0,0,4.24,5.3,5.301,10.954"/>
			<path style="fill:none;stroke:#263238;stroke-linecap:round;stroke-miterlimit:10;" d="M403.879,343.005
				c0,0,1.06-0.707,1.06,6.361"/>
			<path style="fill:none;stroke:#263238;stroke-linecap:round;stroke-miterlimit:10;" d="M406.352,336.291
				c0,0,2.12-2.12,0.707-6.007"/>
			
				<line style="fill:none;stroke:#263238;stroke-linecap:round;stroke-miterlimit:10;" x1="403.525" y1="339.825" x2="401.759" y2="336.998"/>
			<path style="fill:none;stroke:#263238;stroke-linecap:round;stroke-miterlimit:10;" d="M400.345,343.005
				c0,0-5.3-3.534-8.481-3.534"/>
		</g>
		
			<rect x="425.323" y="415.46" style="fill:#263238;stroke:#263238;stroke-width:2;stroke-linecap:round;stroke-miterlimit:10;" width="27.318" height="39.321"/>
	</g>
</g>
<g id="Icons">
	<g style="opacity:0.3;">
		<path style="fill:none;stroke:#000000;stroke-linecap:round;stroke-linejoin:round;stroke-miterlimit:10;" d="M345.66,80.232
			c-0.625-1.082-1.934-1.563-3.111-1.142l-10.221,3.659c-3.214-3.694-7.612-6.328-12.608-7.304l-1.48-11.102
			c-0.171-1.285-1.267-2.244-2.563-2.244c-1.25,0-2.32,0.894-2.544,2.123l-2.039,11.217c-4.801,0.931-9.056,3.389-12.238,6.852
			l-10.65-4.39c-1.198-0.494-2.577-0.025-3.225,1.098c-0.625,1.082-0.386,2.456,0.567,3.265l8.774,7.442
			c-0.892,2.42-1.381,5.036-1.381,7.766c0,2.205,0.323,4.332,0.915,6.345l-8.926,6.873c-1.027,0.791-1.31,2.219-0.662,3.341
			c0.625,1.082,1.934,1.563,3.111,1.142l10.44-3.737c3.096,3.89,7.454,6.726,12.457,7.892l1.412,10.592
			c0.171,1.285,1.267,2.244,2.563,2.244c1.25,0,2.32-0.894,2.544-2.123l1.884-10.364c5.324-0.782,10.038-3.434,13.459-7.266
			l9.583,3.951c1.198,0.494,2.577,0.025,3.225-1.098c0.625-1.082,0.386-2.456-0.567-3.265l-7.936-6.731
			c0.9-2.429,1.393-5.055,1.393-7.797c0-2.599-0.447-5.093-1.259-7.415l8.42-6.483C346.025,82.783,346.308,81.354,345.66,80.232z
			 M315.39,114.477c-9.392,0-17.006-7.614-17.006-17.006c0-9.392,7.614-17.006,17.006-17.006c9.392,0,17.006,7.614,17.006,17.006
			C332.396,106.864,324.782,114.477,315.39,114.477z"/>
		<path style="fill:none;stroke:#000000;stroke-linecap:round;stroke-linejoin:round;stroke-miterlimit:10;" d="M347.648,125.146
			c-0.286-0.495-0.884-0.714-1.422-0.522l-4.672,1.672c-1.469-1.688-3.479-2.892-5.762-3.338l-0.677-5.074
			c-0.078-0.587-0.579-1.026-1.171-1.026c-0.571,0-1.06,0.409-1.163,0.97l-0.932,5.127c-2.194,0.425-4.139,1.549-5.593,3.132
			l-4.867-2.007c-0.548-0.226-1.178-0.011-1.474,0.502c-0.285,0.495-0.176,1.123,0.259,1.492l4.01,3.402
			c-0.408,1.106-0.631,2.302-0.631,3.549c0,1.008,0.148,1.98,0.418,2.9l-4.08,3.141c-0.469,0.361-0.599,1.014-0.302,1.527
			c0.285,0.495,0.884,0.714,1.422,0.522l4.772-1.708c1.415,1.778,3.407,3.074,5.693,3.607l0.646,4.841
			c0.078,0.587,0.579,1.025,1.171,1.025c0.571,0,1.061-0.408,1.163-0.97l0.861-4.737c2.433-0.357,4.588-1.569,6.151-3.321
			l4.38,1.806c0.548,0.226,1.178,0.011,1.474-0.502c0.286-0.495,0.176-1.123-0.259-1.492l-3.627-3.077
			c0.411-1.11,0.637-2.31,0.637-3.564c0-1.188-0.204-2.328-0.576-3.389l3.848-2.963
			C347.815,126.312,347.944,125.659,347.648,125.146z M333.813,140.798c-4.293,0-7.773-3.48-7.773-7.773
			c0-4.293,3.48-7.772,7.773-7.772c4.293,0,7.772,3.48,7.772,7.772C341.586,137.318,338.106,140.798,333.813,140.798z"/>
	</g>
	<g style="opacity:0.3;">
		<path style="fill:none;stroke:#000000;stroke-linecap:round;stroke-linejoin:round;stroke-miterlimit:10;" d="M421.191,59.065
			c2.839,0,5.26-2.245,5.274-5.084c0-0.019,0-0.037,0-0.056c0-5.935-4.811-10.747-10.747-10.747c-0.66,0-1.303,0.069-1.931,0.182
			c-0.633-10.525-9.345-18.872-20.03-18.872c-8.06,0-14.992,4.757-18.193,11.606c-2.784-0.65-5.841-0.589-9.103,0.923
			c-4.831,2.238-8.287,6.855-8.648,12.167c-0.166,2.439,0.279,4.755,1.191,6.82c0.832,1.882,2.737,3.061,4.795,3.061H421.191z"/>
		<polygon style="fill:none;stroke:#000000;stroke-linecap:round;stroke-linejoin:round;stroke-miterlimit:10;" points="401,71.739 
			401,59 384.179,59 384.179,71.739 380.177,71.739 392.589,87.035 405.002,71.739 		"/>
	</g>
	<g style="opacity:0.3;">
		<path style="fill:none;stroke:#000000;stroke-linecap:round;stroke-linejoin:round;stroke-miterlimit:10;" d="M320.885,202.333
			h-44c-4.234,0-7.667-3.432-7.667-7.667l0,0c0-4.234,3.432-7.667,7.667-7.667h44c4.234,0,7.667,3.432,7.667,7.667l0,0
			C328.552,198.901,325.12,202.333,320.885,202.333z"/>
		<path style="fill:none;stroke:#000000;stroke-linecap:round;stroke-linejoin:round;stroke-miterlimit:10;" d="M307.219,187
			h-30.333c-4.234,0-7.667,3.432-7.667,7.667v0c0,4.234,3.432,7.667,7.667,7.667h30.333V187z"/>
	</g>
	<g>
		
			<rect x="405.037" y="145.741" style="opacity:0.3;fill:none;stroke:#000000;stroke-linecap:round;stroke-linejoin:round;stroke-miterlimit:10;" width="46.262" height="39.653"/>
		<g style="opacity:0.3;">
			
				<rect x="407" y="160.304" style="fill:none;stroke:#000000;stroke-linecap:round;stroke-linejoin:round;stroke-miterlimit:10;" width="8.099" height="8.316"/>
			
				<rect x="418.412" y="160.304" style="fill:none;stroke:#000000;stroke-linecap:round;stroke-linejoin:round;stroke-miterlimit:10;" width="8.099" height="8.316"/>
			
				<rect x="429.824" y="160.304" style="fill:none;stroke:#000000;stroke-linecap:round;stroke-linejoin:round;stroke-miterlimit:10;" width="8.099" height="8.316"/>
			
				<rect x="441.237" y="160.304" style="fill:none;stroke:#000000;stroke-linecap:round;stroke-linejoin:round;stroke-miterlimit:10;" width="8.099" height="8.316"/>
			
				<rect x="407" y="172.4" style="fill:none;stroke:#000000;stroke-linecap:round;stroke-linejoin:round;stroke-miterlimit:10;" width="8.099" height="8.316"/>
			
				<rect x="418.412" y="172.4" style="fill:none;stroke:#000000;stroke-linecap:round;stroke-linejoin:round;stroke-miterlimit:10;" width="8.099" height="8.316"/>
			
				<rect x="429.824" y="172.4" style="fill:none;stroke:#000000;stroke-linecap:round;stroke-linejoin:round;stroke-miterlimit:10;" width="8.099" height="8.316"/>
			
				<rect x="441.237" y="172.4" style="fill:none;stroke:#000000;stroke-linecap:round;stroke-linejoin:round;stroke-miterlimit:10;" width="8.099" height="8.316"/>
		</g>
		
			<rect x="406.622" y="149.72" style="opacity:0.3;fill:none;stroke:#000000;stroke-linecap:round;stroke-linejoin:round;stroke-miterlimit:10;" width="43.092" height="5.292"/>
	</g>
</g>
<g id="Table">
	<g>
		<g>
			
				<rect x="297.552" y="295.12" style="fill:#263238;stroke:#263238;stroke-linecap:round;stroke-linejoin:round;stroke-miterlimit:10;" width="3" height="150.156"/>
			
				<rect x="294.885" y="346.453" style="fill:#263238;stroke:#263238;stroke-linecap:round;stroke-linejoin:round;stroke-miterlimit:10;" width="8.333" height="98.823"/>
		</g>
		<g>
			
				<rect x="336.885" y="295.12" style="fill:#263238;stroke:#263238;stroke-linecap:round;stroke-linejoin:round;stroke-miterlimit:10;" width="3" height="150.156"/>
			
				<rect x="334.219" y="346.453" style="fill:#263238;stroke:#263238;stroke-linecap:round;stroke-linejoin:round;stroke-miterlimit:10;" width="8.333" height="98.823"/>
		</g>
		
			<rect x="286.219" y="292.787" style="fill:#FFFFFF;stroke:#263238;stroke-linecap:round;stroke-linejoin:round;stroke-miterlimit:10;" width="65.25" height="3.25"/>
		
			<rect x="284.219" y="444.276" style="fill:#FFFFFF;stroke:#263238;stroke-linecap:round;stroke-linejoin:round;stroke-miterlimit:10;" width="66" height="3.667"/>
		
			<circle style="fill:#263238;stroke:#263238;stroke-linecap:round;stroke-linejoin:round;stroke-miterlimit:10;" cx="340.746" cy="450.453" r="4.586"/>
		
			<circle style="fill:#263238;stroke:#263238;stroke-linecap:round;stroke-linejoin:round;stroke-miterlimit:10;" cx="293.302" cy="450.453" r="4.586"/>
	</g>
</g>
<g id="Character">
	<g>
		<g>
			<g>
				<g>
					<path style="fill:#FFFFFF;stroke:#263238;stroke-linecap:round;stroke-linejoin:round;stroke-miterlimit:10;" d="
						M370.984,439.651c0,0-4.265,5.143-8.154,6.774c-3.889,1.631-8.531,2.509-10.538,3.638c-2.007,1.129-1.505,3.889-0.878,4.642
						c0.627,0.753,44.409,0,44.409,0s1.004-2.885,0.878-6.398c-0.125-3.513-0.627-6.523-0.627-6.523L370.984,439.651z"/>
					<path style="fill:#FFFFFF;stroke:#263238;stroke-linecap:round;stroke-linejoin:round;stroke-miterlimit:10;" d="
						M351.414,454.705c0.627,0.753,44.409,0,44.409,0s0.291-0.842,0.54-2.163l-45.464,0.742
						C350.982,453.904,351.188,454.434,351.414,454.705z"/>
				</g>
				<path style="fill:#263238;stroke:#263238;stroke-linecap:round;stroke-linejoin:round;stroke-miterlimit:10;" d="
					M368.332,339.452c0,0,1.003,33.844,2.507,43.12c1.504,9.276,2.256,36.1,2.758,43.872c0.501,7.772-1.003,9.526-1.003,9.526
					s-2.507-0.501-2.507,1.254c0,1.755,0,3.51,0,3.51s3.76,5.265,14.791,5.766c11.031,0.501,12.535-0.251,12.535-0.251
					s0.752-7.02,0.752-18.301c0-11.281,0.501-23.816,0-32.841c-0.501-9.025-4.513-19.304-4.513-22.563
					c0-3.259,2.507-31.086,2.507-31.086s1.003-7.27-6.267-7.521c-7.27-0.251-21.56,1.253-21.56,1.253V339.452z"/>
			</g>
			<path style="fill:#FFFFFF;stroke:#263238;stroke-linecap:round;stroke-linejoin:round;stroke-miterlimit:10;" d="
				M374.719,236.018c0,0-6.75,13.5-7.25,18s-2,28.5-2,32.5s-5.75,56.75-5.75,56.75l22.25,4.5l4-8.25l0.25,7.75c0,0,1.25,0.25,8-0.25
				s18.25-4.5,18.25-4.5l-5.5-50.25c0,0,8-34,2-55.25c-1.319-4.671-16.46-16.967-16.46-16.967L374.719,236.018z"/>
			<path style="fill:#FFFFFF;stroke:#263238;stroke-linecap:round;stroke-linejoin:round;stroke-miterlimit:10;" d="
				M400.301,226.836c-3.97-3.681-7.792-6.784-7.792-6.784l-17.79,15.967c0,0-6.75,13.5-7.25,18
				c-0.323,2.912-1.065,13.984-1.549,22.524c5.309-9.244,21.515-37.113,26.299-41.274
				C395.451,232.458,398.367,229.174,400.301,226.836z"/>
			<path style="fill:#FFFFFF;stroke:#263238;stroke-linecap:round;stroke-linejoin:round;stroke-miterlimit:10;" d="
				M377.544,230.558l-3.784,2.68l-0.788,7.567l2.522-3.468c0,0-5.045,8.513-5.36,12.612s-3.153,18.288-3.153,18.288
				s9.144-19.864,10.563-23.333c1.419-3.468,16.238-22.072,16.238-22.072l-4.73-3.153L377.544,230.558z"/>
			<g>
				<path style="fill:#FFFFFF;stroke:#263238;stroke-linecap:round;stroke-linejoin:round;stroke-miterlimit:10;" d="
					M356.586,199.748c0,0-0.781,9.371,0.26,10.412c1.041,1.041,2.343,2.863,2.343,2.863s-2.343,6.247-1.562,7.028
					c0.781,0.781,3.124,1.562,3.124,1.562s4.946,9.631,6.768,9.631c1.822,0,6.508-3.384,6.508-3.384l5.206,8.33l13.276-16.139
					l-2.603-4.686c0,0-0.793-20.229-1.313-22.312c-0.521-2.082-5.195-5.021-12.223-7.364c-7.028-2.343-21.345,1.041-24.209,6.508
					C349.298,197.665,356.586,199.748,356.586,199.748z"/>
				<path style="fill:#263238;stroke:#263238;stroke-linecap:round;stroke-linejoin:round;stroke-miterlimit:10;" d="
					M376.37,185.691c-7.028-2.343-21.345,1.041-24.209,6.508c-2.863,5.467,4.425,7.549,4.425,7.549s0.802,0.638,4.75-0.49
					c3.948-1.128,5.263-1.88,5.263-1.88s-1.504,8.835-0.376,9.211c1.128,0.376,7.519-1.316,7.519-1.316s-0.564,5.451,1.504,5.075
					c2.068-0.376,2.068-3.947,2.632-5.263c0.564-1.316,5.827-2.632,6.015,2.82c0.188,5.451-2.256,7.143-2.256,7.143
					s4.732,0.178,8.227-0.695c-0.168-4.109-0.822-19.496-1.272-21.298C388.072,190.972,383.398,188.034,376.37,185.691z"/>
				<path style="fill:none;stroke:#263238;stroke-linecap:round;stroke-linejoin:round;stroke-miterlimit:10;" d="M358.704,211.101
					l6.955-1.316c0,0,1.692,3.196,1.128,5.075c-0.564,1.88-3.572,2.632-4.887,2.256C360.584,216.74,358.704,211.101,358.704,211.101
					z"/>
				
					<line style="fill:none;stroke:#263238;stroke-linecap:round;stroke-linejoin:round;stroke-miterlimit:10;" x1="365.66" y1="209.785" x2="377.126" y2="207.153"/>
				<path style="fill:none;stroke:#263238;stroke-linecap:round;stroke-linejoin:round;stroke-miterlimit:10;" d="M358.704,211.101
					l-3.759,0.752c0,0,1.692,3.948,3.196,3.948"/>
				<polygon style="fill:#263238;stroke:#263238;stroke-linecap:round;stroke-linejoin:round;stroke-miterlimit:10;" points="
					374.027,227.861 380.134,222.567 376.194,230.234 				"/>
				<path style="fill:none;stroke:#263238;stroke-linecap:round;stroke-linejoin:round;stroke-miterlimit:10;" d="M362.495,212.401
					l0.409,1.841c0,0,1.534-0.204,2.762-1.227"/>
				<path style="fill:none;stroke:#263238;stroke-linecap:round;stroke-linejoin:round;stroke-miterlimit:10;" d="M360.347,209.23
					c0,0,1.841-1.739,5.318-1.534"/>
			</g>
			<polygon style="fill:#FFFFFF;stroke:#263238;stroke-linecap:round;stroke-linejoin:round;stroke-miterlimit:10;" points="
				392.469,218.018 375.969,235.268 379.219,240.518 394.969,221.018 			"/>
		</g>
		<g>
			<path style="fill:#FFFFFF;stroke:#263238;stroke-linecap:round;stroke-linejoin:round;stroke-miterlimit:10;" d="
				M347.499,280.296c0,0-18.901-2.658-20.377-2.855c-1.477-0.197-3.642,0.591-4.036,1.28c-0.394,0.689-4.922,7.875-4.725,8.564
				c0.197,0.689,0.591,0.984,1.181,0.984c0.591,0,3.544-3.15,3.544-3.15l4.725-1.772c0,0-4.922,2.953-3.938,3.445
				c0.984,0.492,2.067,0.099,3.249-0.295c1.181-0.394,4.135-1.28,4.135-1.28s2.461,0.591,4.036,0.591s4.233-1.87,4.233-1.87
				l8.367,1.477L347.499,280.296z"/>
			<g>
				<path style="fill:#FFFFFF;stroke:#263238;stroke-linecap:round;stroke-linejoin:round;stroke-miterlimit:10;" d="
					M348.219,280.956c0,0-16.75-1.75-17.75-1.75s-7.75,5.25-8.5,6s-2,4.25-2,4.25l2.25,0.25c0,0,2.25,0.25,3.5-0.5s7-2.25,7-2.25
					s1.25,0.75,3.5,0.75s5.75-1.25,5.75-1.25l7,1.5L348.219,280.956z"/>
				<path style="fill:none;stroke:#263238;stroke-linecap:round;stroke-linejoin:round;stroke-miterlimit:10;" d="M322.79,289.451
					c0,0-0.591-0.591,0.394-0.984c0.984-0.394,6.005-3.445,7.186-3.741c1.181-0.295,3.052-0.492,3.052-0.492"/>
				<path style="fill:none;stroke:#263238;stroke-linecap:round;stroke-linejoin:round;stroke-miterlimit:10;" d="M319.935,289.057
					c0,0,1.378-3.15,3.642-4.135c2.264-0.984,7.088-3.249,7.088-3.249"/>
			</g>
			<path style="fill:#FFFFFF;stroke:#263238;stroke-linecap:round;stroke-linejoin:round;stroke-miterlimit:10;" d="
				M385.469,249.956l-6.75,31.75l-31.25-2.75l-1.25,11.25l44.5,10.75c0,0,3.5-0.5,4.25-3s11.5-46.25,11.5-46.25s1.25-8.5-7-12.75"/>
		</g>
	</g>
</g>
<g id="Cable">
	<g>
		
			<rect x="246.719" y="251.5" style="fill:#FFFFFF;stroke:#263238;stroke-linecap:round;stroke-linejoin:round;stroke-miterlimit:10;" width="10" height="5"/>
		<path style="fill:none;stroke:#263238;stroke-linecap:round;stroke-linejoin:round;stroke-miterlimit:10;" d="M257.092,253.882
			h2.247c3.445,0,6.238,2.793,6.238,6.238v117.889c0,4.006,3.247,7.253,7.253,7.253h0c4.006,0,7.253-3.247,7.253-7.253v-81.781
			c0-2.526,2.048-4.574,4.574-4.574h9.933"/>
		
			<rect x="289.965" y="288.369" style="fill:#FFFFFF;stroke:#263238;stroke-linecap:round;stroke-linejoin:round;stroke-miterlimit:10;" width="8.731" height="4.534"/>
	</g>
</g>
<g id="Device_2">
	<g>
		
			<rect x="294.415" y="260.041" transform="matrix(0.9801 -0.1984 0.1984 0.9801 -48.9066 64.0898)" style="fill:#FFFFFF;stroke:#263238;stroke-linecap:round;stroke-linejoin:round;stroke-miterlimit:10;" width="2.051" height="32.226"/>
		
			<rect x="312.478" y="275.682" transform="matrix(6.123234e-17 -1 1 6.123234e-17 21.7085 605.298)" style="fill:#FFFFFF;stroke:#263238;stroke-linecap:round;stroke-linejoin:round;stroke-miterlimit:10;" width="2.051" height="32.226"/>
	</g>
</g>
<g id="Device_1">
	<g>
		<g>
			<rect x="42.197" y="59.025" style="fill:#FFFFFF;" width="201.408" height="373.116"/>
			<g>
				<line style="fill:none;stroke:#263238;stroke-miterlimit:10;" x1="231.28" y1="101.447" x2="219.782" y2="101.447"/>
				<line style="fill:none;stroke:#263238;stroke-miterlimit:10;" x1="231.28" y1="106.238" x2="219.782" y2="106.238"/>
				<line style="fill:none;stroke:#263238;stroke-miterlimit:10;" x1="231.28" y1="111.029" x2="219.782" y2="111.029"/>
			</g>
			<g>
				<path style="fill:#92E3A9;stroke:#263238;stroke-linecap:round;stroke-linejoin:round;stroke-miterlimit:10;" d="
					M230.694,356.961H58.813c-1.488,0-2.695-1.207-2.695-2.695V124.835c0-1.488,1.207-2.695,2.695-2.695h171.882
					c1.488,0,2.695,1.207,2.695,2.695v229.432C233.389,355.755,232.183,356.961,230.694,356.961z"/>
			</g>
			<polygon style="opacity:0.15;fill:#080808;" points="244.683,433.281 244.683,252.658 86.431,433.281 			"/>
			<g>
				<g>
					<rect x="242.437" y="95.04" style="fill:#263238;" width="9.895" height="33.852"/>
					<rect x="242.437" y="134.621" style="fill:#263238;" width="9.895" height="33.852"/>
					<rect x="242.437" y="180.452" style="fill:#263238;" width="9.895" height="33.852"/>
				</g>
				<path style="fill:#263238;" d="M233.145,40.052H56.362c-8.859,0-16.041,7.182-16.041,16.041v375.515
					c0,8.859,7.182,16.041,16.041,16.041h176.783c8.859,0,16.041-7.182,16.041-16.041V56.093
					C249.186,47.234,242.004,40.052,233.145,40.052z M239.897,423.456H49.61V67.732h190.287V423.456z"/>
				<g>
					<polygon style="fill:none;stroke:#263238;stroke-miterlimit:10;" points="92.662,410.869 102.501,416.549 102.501,405.189 
											"/>
					<path style="fill:none;stroke:#263238;stroke-miterlimit:10;" d="M151.006,410.459c0-2.91-2.359-5.27-5.27-5.27
						c-2.91,0-5.27,2.359-5.27,5.27s2.359,5.27,5.27,5.27C148.647,415.729,151.006,413.369,151.006,410.459z"/>
					<rect x="191.963" y="404.71" style="fill:none;stroke:#263238;stroke-miterlimit:10;" width="11.019" height="11.019"/>
				</g>
				<g>
					<g>
						
							<rect x="217.646" y="71.422" style="fill:none;stroke:#263238;stroke-width:0.8211;stroke-linecap:round;stroke-linejoin:round;stroke-miterlimit:10;" width="15.778" height="8.652"/>
						
							<rect x="217.646" y="71.422" style="fill:#263238;stroke:#263238;stroke-width:0.7251;stroke-linecap:round;stroke-linejoin:round;stroke-miterlimit:10;" width="12.304" height="8.652"/>
						
							<rect x="233.39" y="73.843" style="fill:#263238;stroke:#263238;stroke-width:0.7251;stroke-linecap:round;stroke-linejoin:round;stroke-miterlimit:10;" width="2.223" height="3.81"/>
					</g>
					<g>
						
							<rect x="53.894" y="74.106" style="fill:#263238;stroke:#263238;stroke-width:0.8831;stroke-linecap:round;stroke-linejoin:round;stroke-miterlimit:10;" width="2.892" height="4.959"/>
						
							<rect x="58.44" y="72.365" style="fill:#263238;stroke:#263238;stroke-width:0.8831;stroke-linecap:round;stroke-linejoin:round;stroke-miterlimit:10;" width="2.893" height="6.7"/>
						
							<rect x="62.986" y="70.307" style="fill:#263238;stroke:#263238;stroke-width:0.8831;stroke-linecap:round;stroke-linejoin:round;stroke-miterlimit:10;" width="2.893" height="8.758"/>
					</g>
				</g>
			</g>
		</g>
		<g>
			<path style="fill:#FFFFFF;stroke:#263238;stroke-linecap:round;stroke-linejoin:round;stroke-miterlimit:10;" d="
				M171.348,172.184c-0.625-1.082-1.934-1.563-3.11-1.142l-10.221,3.659c-3.214-3.694-7.612-6.328-12.608-7.304l-1.48-11.102
				c-0.171-1.285-1.267-2.244-2.563-2.244c-1.249,0-2.32,0.894-2.544,2.123l-2.039,11.217c-4.801,0.931-9.056,3.389-12.238,6.852
				l-10.65-4.391c-1.198-0.494-2.577-0.025-3.225,1.098c-0.625,1.082-0.386,2.456,0.567,3.265l8.774,7.442
				c-0.893,2.42-1.381,5.036-1.381,7.766c0,2.205,0.323,4.332,0.915,6.345l-8.926,6.873c-1.027,0.791-1.31,2.219-0.662,3.341
				c0.625,1.082,1.934,1.563,3.11,1.142l10.44-3.737c3.096,3.89,7.454,6.726,12.457,7.892l1.412,10.592
				c0.171,1.285,1.267,2.244,2.563,2.244c1.249,0,2.32-0.894,2.544-2.123l1.884-10.364c5.324-0.782,10.038-3.434,13.459-7.266
				l9.583,3.951c1.198,0.494,2.577,0.025,3.225-1.098c0.625-1.082,0.386-2.456-0.567-3.264l-7.936-6.732
				c0.9-2.429,1.393-5.055,1.393-7.797c0-2.599-0.447-5.093-1.26-7.415l8.42-6.483C171.713,174.735,171.996,173.306,171.348,172.184
				z M141.078,206.43c-9.392,0-17.006-7.614-17.006-17.006c0-9.392,7.614-17.006,17.006-17.006c9.392,0,17.006,7.614,17.006,17.006
				C158.085,198.816,150.471,206.43,141.078,206.43z"/>
			<path style="fill:#FFFFFF;stroke:#263238;stroke-linecap:round;stroke-linejoin:round;stroke-miterlimit:10;" d="
				M173.337,217.098c-0.286-0.495-0.884-0.714-1.422-0.522l-4.672,1.672c-1.469-1.689-3.479-2.892-5.762-3.338l-0.677-5.074
				c-0.078-0.587-0.579-1.025-1.171-1.025c-0.571,0-1.061,0.408-1.163,0.97l-0.932,5.127c-2.194,0.425-4.139,1.549-5.593,3.132
				l-4.867-2.007c-0.548-0.226-1.178-0.011-1.474,0.502c-0.286,0.495-0.177,1.123,0.259,1.492l4.01,3.402
				c-0.408,1.106-0.631,2.302-0.631,3.549c0,1.007,0.148,1.98,0.418,2.9l-4.08,3.141c-0.469,0.361-0.599,1.014-0.302,1.527
				c0.285,0.495,0.884,0.714,1.422,0.522l4.772-1.708c1.415,1.778,3.407,3.074,5.693,3.607l0.645,4.841
				c0.078,0.587,0.579,1.026,1.171,1.026c0.571,0,1.061-0.408,1.163-0.97l0.861-4.737c2.433-0.358,4.588-1.569,6.151-3.321
				l4.38,1.806c0.548,0.226,1.178,0.011,1.474-0.502c0.286-0.495,0.176-1.123-0.259-1.492l-3.627-3.077
				c0.411-1.11,0.637-2.31,0.637-3.564c0-1.188-0.204-2.328-0.576-3.389l3.848-2.963
				C173.503,218.264,173.633,217.611,173.337,217.098z M159.502,232.75c-4.293,0-7.773-3.48-7.773-7.772
				c0-4.293,3.48-7.773,7.773-7.773c4.293,0,7.773,3.48,7.773,7.773C167.274,229.27,163.794,232.75,159.502,232.75z"/>
		</g>
		<g>
			<path style="fill:#263238;" d="M89.816,103.018c1.414,0,2.141,0.846,2.141,2.326v0.29h-1.374v-0.383
				c0-0.661-0.264-0.912-0.727-0.912s-0.727,0.251-0.727,0.912c0,1.903,2.841,2.26,2.841,4.902c0,1.48-0.74,2.326-2.167,2.326
				c-1.427,0-2.167-0.846-2.167-2.326v-0.568h1.375v0.661c0,0.661,0.29,0.898,0.753,0.898c0.463,0,0.753-0.238,0.753-0.898
				c0-1.903-2.841-2.26-2.841-4.902C87.675,103.864,88.402,103.018,89.816,103.018z"/>
			<path style="fill:#263238;" d="M94.07,109.308l-1.837-6.184h1.52l1.11,4.215l1.11-4.215h1.387l-1.836,6.184v3.066H94.07V109.308z
				"/>
			<path style="fill:#263238;" d="M99.805,103.018c1.413,0,2.141,0.846,2.141,2.326v0.29h-1.375v-0.383
				c0-0.661-0.264-0.912-0.727-0.912c-0.462,0-0.727,0.251-0.727,0.912c0,1.903,2.841,2.26,2.841,4.902
				c0,1.48-0.74,2.326-2.167,2.326c-1.427,0-2.168-0.846-2.168-2.326v-0.568h1.375v0.661c0,0.661,0.29,0.898,0.753,0.898
				c0.463,0,0.753-0.238,0.753-0.898c0-1.903-2.841-2.26-2.841-4.902C97.664,103.864,98.391,103.018,99.805,103.018z"/>
			<path style="fill:#263238;" d="M102.368,103.123h4.493v1.322h-1.519v7.928h-1.454v-7.928h-1.52V103.123z"/>
			<path style="fill:#263238;" d="M108.948,107.022h1.996v1.321h-1.996v2.709h2.511v1.321h-3.964v-9.25h3.964v1.322h-2.511V107.022z
				"/>
			<path style="fill:#263238;" d="M115.435,109.691l0.991-6.567h2.021v9.25h-1.374v-6.633l-1.004,6.633h-1.374l-1.084-6.541v6.541
				h-1.268v-9.25h2.022L115.435,109.691z"/>
			<path style="fill:#263238;" d="M122.94,103.123v7.136c0,0.661,0.291,0.898,0.754,0.898c0.462,0,0.753-0.238,0.753-0.898v-7.136
				h1.374v7.044c0,1.48-0.74,2.326-2.167,2.326c-1.427,0-2.167-0.846-2.167-2.326v-7.044H122.94z"/>
			<path style="fill:#263238;" d="M131.119,105.41v1.203c0,1.48-0.714,2.286-2.167,2.286h-0.688v3.475h-1.453v-9.25h2.141
				C130.405,103.123,131.119,103.93,131.119,105.41z M128.265,104.445v3.131h0.688c0.462,0,0.713-0.212,0.713-0.872v-1.387
				c0-0.661-0.251-0.872-0.713-0.872H128.265z"/>
			<path style="fill:#263238;" d="M131.792,103.123h2.299c1.454,0,2.167,0.806,2.167,2.286v4.678c0,1.48-0.714,2.286-2.167,2.286
				h-2.299V103.123z M133.246,104.445v6.607h0.819c0.462,0,0.74-0.238,0.74-0.899v-4.809c0-0.661-0.278-0.899-0.74-0.899H133.246z"
				/>
			<path style="fill:#263238;" d="M141.874,112.373h-1.467l-0.251-1.678h-1.784l-0.251,1.678h-1.335l1.48-9.25h2.127
				L141.874,112.373z M138.558,109.44h1.401l-0.701-4.678L138.558,109.44z"/>
			<path style="fill:#263238;" d="M141.623,103.123h4.493v1.322h-1.52v7.928h-1.454v-7.928h-1.52V103.123z"/>
			<path style="fill:#263238;" d="M148.203,107.022h1.996v1.321h-1.996v2.709h2.511v1.321h-3.964v-9.25h3.964v1.322h-2.511V107.022z
				"/>
		</g>
		<path style="fill:none;stroke:#263238;stroke-linecap:round;stroke-linejoin:round;stroke-miterlimit:10;" d="M197.153,342.694
			H89.572c-3.989,0-7.222-3.233-7.222-7.222l0,0c0-3.989,3.233-7.222,7.222-7.222h107.58c3.988,0,7.222,3.233,7.222,7.222l0,0
			C204.375,339.46,201.141,342.694,197.153,342.694z"/>
		<g>
			<path style="fill:#263238;stroke:#263238;stroke-linecap:round;stroke-linejoin:round;stroke-miterlimit:10;" d="
				M199.643,253.474H87.082c-2.613,0-4.732-2.118-4.732-4.732l0,0c0-2.613,2.118-4.732,4.732-4.732h112.561
				c2.613,0,4.731,2.118,4.731,4.732l0,0C204.375,251.355,202.256,253.474,199.643,253.474z"/>
			<path style="fill:#FFFFFF;stroke:#263238;stroke-linecap:round;stroke-linejoin:round;stroke-miterlimit:10;" d="M174.989,244.01
				H87.082c-2.613,0-4.732,2.118-4.732,4.732l0,0c0,2.613,2.118,4.732,4.732,4.732h87.907V244.01z"/>
		</g>
		<g>
			<polyline style="fill:none;stroke:#263238;stroke-width:2;stroke-linejoin:round;stroke-miterlimit:10;" points="76.872,107.61 
				58.942,107.61 65.915,114.583 			"/>
			
				<line style="fill:none;stroke:#263238;stroke-width:2;stroke-linejoin:round;stroke-miterlimit:10;" x1="58.942" y1="107.61" x2="66.413" y2="100.14"/>
		</g>
		<g>
			<path style="fill:#263238;" d="M129.417,264.324v1.115c0,1.343-0.672,2.11-1.967,2.11c-1.295,0-1.967-0.768-1.967-2.11v-4.366
				c0-1.343,0.672-2.11,1.967-2.11c1.295,0,1.967,0.768,1.967,2.11v0.815h-1.248v-0.899c0-0.6-0.264-0.827-0.684-0.827
				c-0.419,0-0.684,0.227-0.684,0.827v4.534c0,0.6,0.264,0.815,0.684,0.815c0.42,0,0.684-0.216,0.684-0.815v-1.199H129.417z"/>
			<path style="fill:#263238;" d="M131.542,267.454h-1.319v-8.396h1.319v3.598h1.499v-3.598h1.343v8.396h-1.343v-3.598h-1.499
				V267.454z"/>
			<path style="fill:#263238;" d="M136.666,262.597h1.811v1.199h-1.811v2.459h2.279v1.199h-3.598v-8.396h3.598v1.199h-2.279V262.597
				z"/>
			<path style="fill:#263238;" d="M143.588,264.324v1.115c0,1.343-0.672,2.11-1.967,2.11c-1.295,0-1.967-0.768-1.967-2.11v-4.366
				c0-1.343,0.672-2.11,1.967-2.11c1.295,0,1.967,0.768,1.967,2.11v0.815h-1.248v-0.899c0-0.6-0.264-0.827-0.684-0.827
				c-0.419,0-0.684,0.227-0.684,0.827v4.534c0,0.6,0.264,0.815,0.684,0.815c0.42,0,0.684-0.216,0.684-0.815v-1.199H143.588z"/>
			<path style="fill:#263238;" d="M146.122,264.108l-0.408,0.768v2.578h-1.319v-8.396h1.319v3.658l1.727-3.658h1.319l-1.835,3.742
				l1.835,4.653h-1.355L146.122,264.108z"/>
			<path style="fill:#263238;" d="M149.363,259.059h1.319v8.396h-1.319V259.059z"/>
			<path style="fill:#263238;" d="M152.818,261.373v6.081h-1.188v-8.396h1.655l1.355,5.025v-5.025h1.175v8.396h-1.355
				L152.818,261.373z"/>
			<path style="fill:#263238;" d="M158.745,262.776h1.847v2.663c0,1.343-0.672,2.11-1.967,2.11c-1.295,0-1.967-0.768-1.967-2.11
				v-4.366c0-1.343,0.672-2.11,1.967-2.11c1.295,0,1.967,0.768,1.967,2.11v0.815h-1.248v-0.899c0-0.6-0.264-0.827-0.684-0.827
				c-0.419,0-0.684,0.227-0.684,0.827v4.534c0,0.6,0.264,0.815,0.684,0.815c0.42,0,0.684-0.216,0.684-0.815v-1.548h-0.6V262.776z"/>
			<path style="fill:#263238;" d="M162.597,266.183v1.272h-1.271v-1.272H162.597z"/>
			<path style="fill:#263238;" d="M164.829,266.183v1.272h-1.271v-1.272H164.829z"/>
			<path style="fill:#263238;" d="M167.061,266.183v1.272h-1.272v-1.272H167.061z"/>
		</g>
		<g>
			<path style="fill:#263238;" d="M113.491,337.064v0.93c0,1.119-0.56,1.759-1.639,1.759c-1.079,0-1.639-0.64-1.639-1.759v-3.639
				c0-1.119,0.56-1.759,1.639-1.759c1.08,0,1.639,0.64,1.639,1.759v0.68h-1.039v-0.749c0-0.5-0.22-0.69-0.57-0.69
				c-0.35,0-0.57,0.19-0.57,0.69v3.777c0,0.5,0.22,0.68,0.57,0.68c0.35,0,0.57-0.18,0.57-0.68v-0.999H113.491z"/>
			<path style="fill:#263238;" d="M115.262,339.672h-1.099v-6.996h1.099v2.998h1.25v-2.998h1.119v6.996h-1.119v-2.998h-1.25V339.672
				z"/>
			<path style="fill:#263238;" d="M119.532,335.624h1.509v1h-1.509v2.049h1.899v0.999h-2.998v-6.996h2.998v0.999h-1.899V335.624z"/>
			<path style="fill:#263238;" d="M125.3,337.064v0.93c0,1.119-0.56,1.759-1.639,1.759c-1.079,0-1.639-0.64-1.639-1.759v-3.639
				c0-1.119,0.56-1.759,1.639-1.759c1.08,0,1.639,0.64,1.639,1.759v0.68h-1.039v-0.749c0-0.5-0.22-0.69-0.57-0.69
				c-0.35,0-0.57,0.19-0.57,0.69v3.777c0,0.5,0.22,0.68,0.57,0.68c0.35,0,0.57-0.18,0.57-0.68v-0.999H125.3z"/>
			<path style="fill:#263238;" d="M127.411,336.884l-0.34,0.64v2.148h-1.099v-6.996h1.099v3.048l1.439-3.048h1.099l-1.529,3.118
				l1.529,3.878h-1.129L127.411,336.884z"/>
			<path style="fill:#263238;" d="M130.112,332.676h1.099v6.996h-1.099V332.676z"/>
			<path style="fill:#263238;" d="M132.992,334.604v5.067h-0.99v-6.996h1.379l1.129,4.188v-4.188h0.98v6.996h-1.129L132.992,334.604
				z"/>
			<path style="fill:#263238;" d="M137.931,335.774h1.539v2.219c0,1.119-0.559,1.759-1.639,1.759c-1.079,0-1.639-0.64-1.639-1.759
				v-3.639c0-1.119,0.56-1.759,1.639-1.759c1.08,0,1.639,0.64,1.639,1.759v0.68h-1.039v-0.749c0-0.5-0.22-0.69-0.57-0.69
				c-0.35,0-0.57,0.19-0.57,0.69v3.777c0,0.5,0.22,0.68,0.57,0.68c0.35,0,0.57-0.18,0.57-0.68v-1.289h-0.5V335.774z"/>
			<path style="fill:#263238;" d="M142.831,335.784h1.419v0.999h-1.419v2.889h-1.099v-6.996h2.908v0.999h-1.809V335.784z"/>
			<path style="fill:#263238;" d="M145.082,334.354c0-1.119,0.589-1.759,1.669-1.759c1.079,0,1.669,0.64,1.669,1.759v3.639
				c0,1.119-0.59,1.759-1.669,1.759c-1.08,0-1.669-0.64-1.669-1.759V334.354z M146.181,338.063c0,0.5,0.22,0.69,0.57,0.69
				c0.35,0,0.57-0.19,0.57-0.69v-3.777c0-0.5-0.22-0.69-0.57-0.69c-0.35,0-0.57,0.19-0.57,0.69V338.063z"/>
			<path style="fill:#263238;" d="M151.431,339.672c-0.06-0.18-0.1-0.29-0.1-0.859v-1.1c0-0.649-0.22-0.89-0.72-0.89h-0.38v2.849
				h-1.099v-6.996h1.659c1.139,0,1.629,0.529,1.629,1.609v0.55c0,0.719-0.23,1.188-0.72,1.419c0.55,0.229,0.73,0.76,0.73,1.489
				v1.079c0,0.34,0.01,0.59,0.12,0.85H151.431z M150.231,333.675v2.149h0.43c0.41,0,0.66-0.18,0.66-0.74v-0.69
				c0-0.499-0.17-0.72-0.56-0.72H150.231z"/>
			<path style="fill:#263238;" d="M155.751,332.676v5.397c0,0.499,0.22,0.679,0.57,0.679c0.35,0,0.569-0.18,0.569-0.679v-5.397h1.04
				v5.327c0,1.119-0.56,1.759-1.639,1.759c-1.079,0-1.639-0.64-1.639-1.759v-5.327H155.751z"/>
			<path style="fill:#263238;" d="M161.94,334.404v0.91c0,1.119-0.54,1.728-1.639,1.728h-0.52v2.629h-1.099v-6.996h1.619
				C161.4,332.676,161.94,333.285,161.94,334.404z M159.781,333.675v2.369h0.52c0.35,0,0.54-0.16,0.54-0.66v-1.049
				c0-0.5-0.19-0.66-0.54-0.66H159.781z"/>
			<path style="fill:#263238;" d="M162.452,332.676h1.739c1.1,0,1.639,0.609,1.639,1.728v3.538c0,1.12-0.54,1.729-1.639,1.729
				h-1.739V332.676z M163.551,333.675v4.998h0.62c0.35,0,0.56-0.181,0.56-0.68v-3.639c0-0.499-0.21-0.68-0.56-0.68H163.551z"/>
			<path style="fill:#263238;" d="M170.08,339.672h-1.109l-0.19-1.27h-1.35l-0.19,1.27h-1.009l1.12-6.996h1.609L170.08,339.672z
				 M167.571,337.453h1.06l-0.53-3.538L167.571,337.453z"/>
			<path style="fill:#263238;" d="M169.892,332.676h3.398v0.999h-1.149v5.997h-1.099v-5.997h-1.149V332.676z"/>
			<path style="fill:#263238;" d="M174.871,335.624h1.509v1h-1.509v2.049h1.899v0.999h-2.998v-6.996h2.998v0.999h-1.899V335.624z"/>
			<path style="fill:#263238;" d="M178.931,332.596c1.069,0,1.619,0.64,1.619,1.759v0.22h-1.039v-0.289c0-0.5-0.2-0.69-0.549-0.69
				c-0.35,0-0.55,0.19-0.55,0.69c0,1.438,2.149,1.709,2.149,3.708c0,1.119-0.56,1.759-1.639,1.759c-1.08,0-1.639-0.64-1.639-1.759
				v-0.43h1.04v0.499c0,0.5,0.22,0.68,0.569,0.68c0.35,0,0.57-0.18,0.57-0.68c0-1.439-2.149-1.709-2.149-3.708
				C177.311,333.235,177.861,332.596,178.931,332.596z"/>
		</g>
	</g>
</g>
</svg>
